<?xml version="1.0" standalone="no"?>
<!DOCTYPE svg PUBLIC "-//W3C//DTD SVG 1.1//EN" "http://www.w3.org/Graphics/SVG/1.1/DTD/svg11.dtd" >
<svg xmlns="http://www.w3.org/2000/svg" xmlns:xlink="http://www.w3.org/1999/xlink" version="1.1">
<metadata></metadata>
<defs>
<font id="exo_2extra_bold_italic" horiz-adv-x="1232" >
<font-face units-per-em="2048" ascent="1638" descent="-410" />
<missing-glyph horiz-adv-x="436" />
<glyph horiz-adv-x="0" />
<glyph horiz-adv-x="682" />
<glyph unicode=" "  horiz-adv-x="436" />
<glyph unicode="&#x09;" horiz-adv-x="436" />
<glyph unicode="&#xa0;" horiz-adv-x="436" />
<glyph unicode="!" horiz-adv-x="643" d="M551 911l-102 -454h-291l24 454l70 512h369zM240 348h75q66 0 98.5 -35.5t22.5 -101.5l-12 -90q-8 -62 -41 -91.5t-100 -29.5h-74q-141 0 -123 135l10 92q17 121 144 121z" />
<glyph unicode="&#x22;" horiz-adv-x="788" d="M377 952h-219l43 461h262zM727 952h-219l43 461h262z" />
<glyph unicode="#" horiz-adv-x="1490" d="M1202 848l-76 -242h228l-76 -219h-221l-121 -387h-281l121 387h-233l-121 -387h-281l121 387h-239l75 219h234l76 242h-234l74 219h229l109 346h280l-108 -346h233l109 346h280l-108 -346h231l-73 -219h-228zM922 848h-234l-76 -242h234z" />
<glyph unicode="$" horiz-adv-x="1183" d="M682 1130q-90 0 -125 -16.5t-43 -77.5q-8 -45 10.5 -68.5t85.5 -52.5l236 -106q83 -38 136 -81t80 -94t33.5 -114t-3.5 -141q-14 -118 -47 -194t-97.5 -123t-154.5 -67t-228 -22l-49 -204h-276l53 219q-164 19 -279 49l39 270q400 -10 457 -10q110 0 150.5 19.5 t50.5 78.5q7 45 -9.5 67.5t-68.5 43.5l-254 119q-108 51 -167.5 118t-75 139t-3.5 169q14 111 51 185.5t104 118.5t154.5 63t214.5 22l50 182h276l-51 -195q146 -17 250 -53l-37 -250q-363 6 -463 6z" />
<glyph unicode="%" horiz-adv-x="1871" d="M510 1442q137 0 214 -40.5t105.5 -136.5t6.5 -259q-34 -234 -120 -321t-282 -87q-135 0 -211 40.5t-104 136.5t-6 259q34 234 119 321t278 87zM563 0h-239l1009 1413h238zM506 1243q-61 0 -82.5 -42.5t-40.5 -194.5q-15 -87 -13 -133.5t16.5 -61t53.5 -14.5q44 0 65.5 19 t34 65.5t25.5 152.5q15 132 5 170.5t-64 38.5zM1462 815q137 0 214 -40.5t105.5 -136t6.5 -257.5q-34 -234 -120 -321t-282 -87q-135 0 -211.5 40.5t-104 136.5t-5.5 258q34 234 119 320.5t278 86.5zM1458 616q-61 0 -82.5 -42t-40.5 -193q-16 -87 -13.5 -133.5t17.5 -61 t54 -14.5q26 0 43 6t30 19t21.5 42.5t15.5 67t15 101.5q12 87 9 133t-17 60.5t-52 14.5z" />
<glyph unicode="&#x26;" horiz-adv-x="1544" d="M1501 604h-164q-28 -138 -82 -250q-186 -381 -729 -381q-276 0 -390 98t-89 304q12 101 48 176t106.5 123t169.5 53l2 12q-106 9 -158 107t-27 233q16 92 52.5 158t85 105t121.5 61.5t145.5 29.5t173.5 7q201 0 352 -47l-59 -254q-149 26 -281 26q-115 0 -158.5 -29.5 t-56.5 -127.5q-12 -95 16.5 -128.5t112.5 -33.5h361q4 64 8 192h311q0 -101 -6 -192h170zM963 467q30 52 53 137h-359q-94 0 -140.5 -38.5t-59.5 -141.5q-10 -87 25 -120.5t130 -33.5q122 0 208.5 45t142.5 152z" />
<glyph unicode="'" horiz-adv-x="438" d="M377 952h-219l43 461h262z" />
<glyph unicode="(" horiz-adv-x="755" d="M817 1620l43 -164q-175 -70 -280 -278.5t-152 -550.5q-28 -207 -25.5 -366.5t55 -273.5t156.5 -165l-47 -152q-311 92 -432 333t-63 650q59 410 237 643.5t508 323.5z" />
<glyph unicode=")" horiz-adv-x="755" d="M156 1458l45 154q311 -91 432 -332t63 -655q-59 -408 -237 -640.5t-508 -324.5l-45 164q177 75 281.5 285.5t152.5 545.5q28 211 26 372t-53.5 272t-156.5 159z" />
<glyph unicode="*" horiz-adv-x="931" d="M604 1065l189 -264l-168 -119l-103 246l-172 -246l-151 119l264 262l16 354h205zM434 1163l-6 -88l-55 -51l-244 51l80 193zM938 1071l-252 -53l-45 55l18 88l240 105z" />
<glyph unicode="+" horiz-adv-x="1079" d="M997 481h-338l-47 -331h-272l47 331h-338l41 275h336l47 334h275l-48 -334h336z" />
<glyph unicode="," horiz-adv-x="514" d="M184 348h70q73 0 101 -32t18 -105l-19 -131q-13 -99 -60.5 -212.5t-107.5 -191.5l-155 58q41 99 84 272q-58 -1 -80.5 27.5t-16.5 87.5l15 100q12 72 45.5 99.5t105.5 27.5z" />
<glyph unicode="-" horiz-adv-x="811" d="M680 412h-602l33 225h602z" />
<glyph unicode="." horiz-adv-x="509" d="M174 348h78q67 0 100 -35.5t23 -101.5l-13 -90q-8 -62 -41 -91.5t-100 -29.5h-80q-138 0 -123 135l13 92q9 63 43.5 92t99.5 29z" />
<glyph unicode="/" horiz-adv-x="1187" d="M236 -156h-302l1024 1569h304z" />
<glyph unicode="0" horiz-adv-x="1316" d="M754 1442q129 0 221 -25t157.5 -80t95.5 -142.5t36.5 -212.5t-19.5 -290q-30 -208 -76 -342.5t-124 -221t-186.5 -122t-268.5 -35.5q-103 0 -182.5 17t-142.5 54t-102 95.5t-61.5 141.5t-21 193t19.5 249q29 207 75.5 342t125 221.5t187 122t266.5 35.5zM737 1149 q-44 0 -74 -6.5t-56.5 -25.5t-44.5 -49t-34 -81t-28 -117t-25 -163q-13 -98 -18.5 -163t-4.5 -118t9.5 -82t28.5 -48t47 -25.5t69 -6.5q53 0 87.5 11t63 37t47.5 78.5t34 126.5t30 190q15 118 19.5 191t0 126t-24 78.5t-48.5 36t-78 10.5z" />
<glyph unicode="1" horiz-adv-x="923" d="M672 0h-383l137 942q15 107 35 168l-334 -80l-29 238l400 145h372z" />
<glyph unicode="2" horiz-adv-x="1191" d="M672 1438q104 0 179 -9t137.5 -33t98.5 -64t51.5 -102.5t6.5 -148.5q-13 -113 -69.5 -208.5t-192.5 -217.5l-394 -350q95 27 201 27h393l-45 -332h-1048l28 207q9 54 21.5 88t42.5 65l367 326q70 64 97.5 90.5t72.5 69.5t61 62t38 47t30 47.5t12 41.5q7 44 -20.5 58 t-102.5 14q-260 0 -455 -10l6 287q248 45 484 45z" />
<glyph unicode="3" horiz-adv-x="1159" d="M651 1442q252 0 361 -78t94 -266q-5 -63 -22 -118.5t-47.5 -105.5t-82.5 -82.5t-120 -39.5l-3 -9q264 -38 224 -333q-28 -222 -173.5 -329t-428.5 -110q-206 0 -455 41l27 273q236 -13 376 -11q139 3 201.5 52t77.5 133q14 81 -15.5 116t-121.5 35l-287 2l31 242h278 q99 0 135 40t43 128q4 47 -3.5 70t-41.5 36t-106 13q-185 0 -393 -4v268q249 37 452 37z" />
<glyph unicode="4" horiz-adv-x="1316" d="M1262 553l-29 -219l-154 -37h-8l-41 -297h-350l41 297h-537q-53 0 -92.5 20.5t-59 52.5t-19.5 74t22 84l477 885h367l-424 -809q-17 -28 -13.5 -39.5t29.5 -11.5h285l49 362l92 222h293l-82 -584h154z" />
<glyph unicode="5" horiz-adv-x="1132" d="M1079 1130h-551l-45 -208l168 -19q123 -16 208.5 -59t127 -105.5t55 -132t2.5 -149.5q-11 -78 -34.5 -143.5t-68 -127t-107.5 -105t-157.5 -72t-213.5 -34.5q-180 -10 -471 41l51 289q207 -25 346 -16q131 6 196.5 50.5t82.5 143.5q12 73 -30 101.5t-169 42.5l-215 28 q-59 8 -91 50.5t-22 99.5l121 608h871z" />
<glyph unicode="6" horiz-adv-x="1218" d="M772 932q229 0 315.5 -105t51.5 -348q-20 -135 -58 -227t-106 -155.5t-170 -92.5t-248 -29q-107 0 -186 15.5t-137.5 51.5t-93.5 91.5t-51 138.5t-12.5 188.5t23.5 246.5q20 137 46.5 242t59 182.5t77 131.5t92.5 88.5t113.5 53.5t132 26t155.5 7q199 0 385 -43l-28 -236 q-113 2 -332 2q-79 0 -126 -12t-82.5 -49t-56.5 -95t-42 -161q125 88 278 88zM780 500q15 108 -6 140t-108 32q-102 0 -215 -78q-12 -80 -17.5 -128.5t-5 -90.5t8 -62.5t26 -35.5t44 -19t66.5 -4q46 0 78.5 9.5t53.5 26t35.5 48.5t23 68t16.5 94z" />
<glyph unicode="7" horiz-adv-x="1103" d="M150 1413h872q102 0 137.5 -54.5t-4.5 -139.5l-604 -1219h-379l477 963q40 78 96 145l-620 -2z" />
<glyph unicode="8" horiz-adv-x="1282" d="M727 1440q155 0 257.5 -24t157.5 -75t71 -121.5t1 -172.5q-42 -284 -264 -310l-2 -8q256 -29 203 -391q-12 -81 -33.5 -137.5t-61.5 -102.5t-102.5 -72.5t-152.5 -40.5t-215 -14q-164 0 -274.5 24.5t-171.5 75.5t-82 123t-9 173q37 344 307 364l2 8q-109 17 -150.5 106 t-23.5 230q18 132 71 209t166.5 116.5t305.5 39.5zM721 1182q-107 0 -146.5 -35.5t-52.5 -149.5q-11 -87 16.5 -114t137.5 -27q104 0 141 33t51 137q14 97 -14 126.5t-133 29.5zM635 610q-58 0 -91.5 -6t-61.5 -27t-42.5 -60t-21.5 -105q-12 -97 21 -129.5t153 -32.5 q110 0 153 37t58 153q15 105 -17 137.5t-151 32.5z" />
<glyph unicode="9" horiz-adv-x="1220" d="M700 1436q109 0 186.5 -14.5t136 -49.5t92 -89t48.5 -137.5t11 -190.5t-25 -253q-21 -147 -49 -256t-69 -191.5t-92 -135.5t-122 -86t-154 -46.5t-194 -13.5q-232 0 -418 43l29 240q119 -2 371 -2q145 3 210 70.5t99 244.5q-118 -92 -289 -92q-70 0 -127 15t-96 40.5 t-66.5 62t-42.5 77t-22 88t-6 92t8 92.5q15 113 39 190t65.5 138t105.5 95.5t154 51.5t217 17zM469 954q-12 -127 9.5 -172t103.5 -45q61 0 109 15.5t106 54.5q8 64 12 102t6.5 79t0.5 62.5t-8.5 44t-17 31.5t-28.5 18t-40 11t-54 2q-105 0 -145 -41t-54 -162z" />
<glyph unicode=":" horiz-adv-x="546" d="M244 936h80q66 0 98.5 -34.5t23.5 -100.5l-14 -90q-8 -64 -41 -93.5t-100 -29.5h-78q-140 0 -125 137l12 90q17 121 144 121zM162 350h78q67 0 99.5 -35.5t22.5 -101.5l-12 -90q-8 -63 -41 -92t-100 -29h-80q-138 0 -123 135l12 90q9 63 44 93t100 30z" />
<glyph unicode=";" horiz-adv-x="546" d="M274 936h78q66 0 99 -34.5t24 -100.5l-12 -90q-8 -64 -41 -93.5t-100 -29.5h-80q-141 0 -123 137l12 90q9 63 43.5 92t99.5 29zM203 348h69q73 0 101 -32t18 -105l-18 -131q-13 -99 -60.5 -212.5t-107.5 -191.5l-156 58q41 99 84 272q-58 -1 -80 27.5t-16 87.5l14 100 q12 72 46 99.5t106 27.5z" />
<glyph unicode="&#x3c;" horiz-adv-x="1040" d="M969 793l-588 -172l534 -189l-36 -285l-832 328l39 287l922 330z" />
<glyph unicode="=" horiz-adv-x="1177" d="M1081 692h-960l39 273h960zM1020 258h-961l41 272h961z" />
<glyph unicode="&#x3e;" horiz-adv-x="1036" d="M995 762l-39 -287l-917 -330l41 297l582 189l-529 188l35 273z" />
<glyph unicode="?" horiz-adv-x="1083" d="M676 1458q234 0 341.5 -82.5t84.5 -249.5q-8 -59 -33.5 -111t-61 -91.5t-77.5 -77t-86 -77.5t-83.5 -82.5t-72.5 -101.5t-51 -126h-295q9 92 43.5 176t80.5 144t91.5 110t83.5 95.5t49 78.5q19 60 -4.5 79t-99.5 19q-146 0 -428 -4v248q184 36 267 44q100 9 251 9z M434 348h74q67 0 100.5 -35.5t24.5 -101.5l-15 -90q-8 -62 -41 -91.5t-98 -29.5h-76q-139 0 -124 135l14 90q7 63 41.5 93t99.5 30z" />
<glyph unicode="@" horiz-adv-x="1662" d="M879 1339q128 1 219 -3t173.5 -17.5t134.5 -35t94.5 -59.5t62.5 -87t29.5 -121t4.5 -158.5t-22 -202.5q-15 -106 -28 -179.5t-32 -146t-40 -119.5t-52.5 -90.5t-69 -68t-89.5 -43.5t-114.5 -26t-143.5 -7q-138 0 -217.5 52t-108.5 137q-129 -189 -324 -189 q-365 0 -284 498q14 86 35.5 153t47 115.5t60 82.5t70 55t83.5 33t93.5 16t105.5 4q200 0 527 -58l-90 -571q-6 -41 5.5 -58.5t41.5 -17.5q40 0 65.5 12t44.5 39t32.5 79.5t26.5 124t30 181.5q1 6 1 9q11 65 17.5 110.5t6.5 87.5t0.5 69.5t-14 52t-23.5 37.5t-41 24.5 t-53 16t-72.5 7.5t-87.5 3.5t-110 0.5h-700l19 238q306 16 686 20zM475 250q57 0 104.5 40.5t106.5 133.5l43 268l-111 2q-53 0 -81 -5.5t-55.5 -29t-44 -71t-31.5 -129.5q-10 -58 -12.5 -96t0.5 -61t15.5 -34t26.5 -14.5t39 -3.5z" />
<glyph unicode="A" horiz-adv-x="1359" d="M870 330h-432l-129 -330h-401l567 1321q39 92 137 92h353q47 0 82 -31t40 -75l201 -1307h-385zM840 621l-37 360q-6 49 -6 147h-60q-16 -68 -43 -145l-141 -362h287z" />
<glyph unicode="B" horiz-adv-x="1325" d="M1260 1047q-21 -152 -85.5 -225t-203.5 -85l-2 -10q159 -13 219.5 -112t34.5 -277q-15 -107 -51 -175.5t-102.5 -108.5t-155 -55t-222.5 -15q-436 0 -653 16l199 1413q204 17 548 17q142 0 234.5 -18t153 -62t81 -118t5.5 -185zM893 1022q10 77 -15 104t-104 27h-199 l-40 -299h172q96 0 133.5 33t52.5 135zM840 442q13 102 -15 135t-127 33h-198l-49 -350h170q116 0 159 35t60 147z" />
<glyph unicode="C" horiz-adv-x="1216" d="M797 1438q148 0 244.5 -12.5t199.5 -41.5l-45 -280q-214 6 -418 6q-70 0 -110.5 -13.5t-75.5 -58.5t-55.5 -126.5t-38.5 -219.5q-25 -153 -19 -239.5t42.5 -118t125.5 -31.5q271 0 443 16l14 -282q-109 -34 -216 -48t-257 -14q-231 0 -359 73.5t-171 236t-5 436.5 q24 171 60 290t89 203.5t132 132.5t179.5 69.5t240.5 21.5z" />
<glyph unicode="D" horiz-adv-x="1413" d="M780 1434q100 0 179.5 -11t146.5 -35.5t114.5 -64.5t81 -97.5t49 -135t15 -176.5t-17.5 -222q-21 -149 -49.5 -256.5t-71 -188.5t-95 -131t-129.5 -81t-165.5 -43t-210.5 -12q-291 0 -588 20l199 1413q266 21 542 21zM944 721q12 93 17 155t1.5 112.5t-15.5 79 t-36.5 47.5t-58 25.5t-84.5 6.5h-184l-123 -877l162 -2q75 0 122.5 16.5t88 65.5t66 138t44.5 233z" />
<glyph unicode="E" horiz-adv-x="1187" d="M1176 1120h-508q-56 0 -80.5 -20.5t-30.5 -73.5l-22 -168h530l-33 -262h-534l-29 -213q-8 -47 11.5 -68.5t70.5 -21.5h506l-8 -279q-39 -5 -82 -8.5t-97.5 -5.5t-89.5 -3.5t-104 -2t-92 -0.5h-102h-89q-173 0 -255 98.5t-60 263.5l106 766q21 139 111.5 218t241.5 79 q172 0 252.5 -0.5t212.5 -6t219 -17.5z" />
<glyph unicode="F" horiz-adv-x="1146" d="M1167 1120h-483q-62 0 -88 -19.5t-33 -74.5l-26 -197h514l-35 -260h-516l-80 -569h-385l155 1120q20 140 114 219.5t237 79.5q168 0 247 -0.5t208 -6.5t214 -19z" />
<glyph unicode="G" horiz-adv-x="1347" d="M922 815h366l-114 -815h-281l-14 168q-193 -197 -418 -197q-86 0 -152 25t-117.5 80t-78 142.5t-33 212.5t17.5 290q20 148 51.5 258.5t78.5 190.5t104.5 132.5t138 83.5t170 43.5t207.5 12.5q256 0 455 -58l-46 -276q-218 6 -423 6q-112 0 -174.5 -36t-99.5 -124.5 t-62 -261.5q-23 -152 -16.5 -239t40.5 -119.5t111 -32.5q33 0 63 6.5t48 12.5t46.5 24t35.5 23.5t38 29.5z" />
<glyph unicode="H" horiz-adv-x="1423" d="M1415 1413l-198 -1413h-386l87 608h-408l-86 -608h-385l199 1413h385l-74 -522h407l74 522h385z" />
<glyph unicode="I" horiz-adv-x="630" d="M424 0h-385l199 1413h385z" />
<glyph unicode="J" horiz-adv-x="780" d="M776 1413l-158 -1143q-21 -144 -115.5 -220.5t-244.5 -76.5q-76 0 -167.5 14.5t-131.5 37.5l61 243h80q129 0 142 97l151 1048h383z" />
<glyph unicode="K" horiz-adv-x="1333" d="M883 713l-2 -11q26 -14 55 -53t47 -82l268 -567h-417l-250 604h-90q6 -79 -2 -139l-66 -465h-387l199 1413h387l-58 -401q-10 -82 -35 -150h93l376 551h433l-416 -586q-53 -79 -135 -114z" />
<glyph unicode="L" horiz-adv-x="1107" d="M616 1413l-147 -1014q-5 -49 12.5 -70.5t69.5 -21.5h475l-8 -291q-176 -22 -639 -22q-152 0 -236.5 90t-62.5 238l151 1091h385z" />
<glyph unicode="M" horiz-adv-x="1904" d="M1368 1413h352q67 0 102 -38.5t27 -104.5l-127 -1270h-352l117 1120h-31l-282 -796q-19 -59 -56.5 -86t-101.5 -27h-215q-63 0 -99.5 33.5t-39.5 93.5l-68 782h-33l-194 -1120h-353l232 1284q12 67 45 98t98 31h340q60 0 96 -33.5t37 -93.5l51 -627q6 -68 2 -206h25 q13 58 57 202l215 643q17 61 54.5 88t101.5 27z" />
<glyph unicode="N" horiz-adv-x="1482" d="M1475 1413l-181 -1286q-9 -66 -42 -96.5t-99 -30.5h-160q-55 0 -82.5 27.5t-56.5 91.5l-258 608q-39 82 -68 223h-18q3 -118 -12 -243l-103 -707h-356l180 1286q9 66 43 96.5t98 30.5h160q29 0 50 -7.5t37 -26t25.5 -35.5t24.5 -50l254 -583q49 -112 80 -238h21 q-8 113 8 236l98 704h357z" />
<glyph unicode="O" horiz-adv-x="1415" d="M795 1442q98 0 175.5 -11t143.5 -36.5t112.5 -66t79.5 -98.5t48 -136.5t15 -178t-17 -223.5q-20 -144 -49 -252.5t-72.5 -189t-97.5 -134t-128.5 -86t-160 -46t-197.5 -13.5q-101 0 -180.5 11.5t-145 36.5t-110.5 66t-76.5 99t-44.5 137t-12 177.5t18 222.5 q24 171 61.5 291.5t92 205t134 133t178 70t233.5 21.5zM788 1147q-56 0 -94 -12.5t-69 -40.5t-52.5 -83t-39 -129.5t-35.5 -189.5q-16 -106 -20 -177t3 -121.5t29.5 -77.5t56.5 -38.5t88 -11.5q94 0 146 38t85.5 132.5t61.5 284.5q16 107 19.5 178.5t-3.5 121.5t-30 76.5 t-57.5 38t-88.5 11.5z" />
<glyph unicode="P" horiz-adv-x="1280" d="M784 1434q104 0 181.5 -10.5t139.5 -33.5t99.5 -60.5t61 -92t25.5 -126.5t-9 -165q-19 -139 -55 -226.5t-102.5 -139.5t-157 -71.5t-230.5 -19.5q-110 0 -243 17l-72 -506h-383l199 1413q205 21 546 21zM903 975q15 104 -11.5 141t-117.5 37h-190l-54 -383h177 q53 0 83.5 6.5t54.5 29.5t36 62t22 107z" />
<glyph unicode="Q" horiz-adv-x="1415" d="M795 1442q98 0 175.5 -11t143.5 -36.5t112.5 -66t79.5 -98.5t48 -136.5t15 -178t-17 -223.5q-20 -144 -49 -252.5t-72.5 -189t-97.5 -134t-128.5 -86t-160 -46t-197.5 -13.5q-101 0 -180.5 11.5t-145 36.5t-110.5 66t-76.5 99t-44.5 137t-12 177.5t18 222.5 q24 171 61.5 291.5t92 205t134 133t178 70t233.5 21.5zM788 1147q-56 0 -94 -12.5t-69 -40.5t-52.5 -83t-39 -129.5t-35.5 -189.5q-16 -106 -20 -177t3 -121.5t29.5 -77.5t56.5 -38.5t88 -11.5q94 0 146 38t85.5 132.5t61.5 284.5q16 107 19.5 178.5t-3.5 121.5t-30 76.5 t-57.5 38t-88.5 11.5zM381 -254l113 191q230 -91 626 -152l-141 -322q-360 104 -598 283z" />
<glyph unicode="R" horiz-adv-x="1343" d="M1303 993q-19 -142 -91 -226.5t-227 -100.5l-2 -15q30 -5 56 -17.5t52.5 -37t45 -67t24.5 -99.5l62 -430h-396l-49 432q-4 61 -24.5 80.5t-73.5 19.5h-191l-75 -532h-375l199 1413q205 21 548 21q142 0 242 -22.5t169.5 -72.5t96 -136.5t9.5 -209.5zM920 997 q12 89 -18 122.5t-122 33.5h-205l-47 -340h185q105 0 147.5 37t59.5 147z" />
<glyph unicode="S" horiz-adv-x="1210" d="M717 1440q278 0 485 -66l-35 -250q-369 6 -469 6q-97 0 -133.5 -16.5t-46.5 -77.5q-8 -44 11.5 -68t88.5 -53l244 -106q166 -72 219 -169.5t33 -260.5q-15 -122 -50 -199.5t-105 -124t-168 -64.5t-250 -18q-261 0 -523 64l37 270q413 -10 467 -10q116 0 159.5 19.5 t53.5 78.5q7 44 -10 65.5t-74 45.5l-262 119q-83 38 -138 84.5t-81.5 99t-34.5 114t2 128.5q15 116 55.5 192.5t115 119.5t171 60t238.5 17z" />
<glyph unicode="T" horiz-adv-x="1243" d="M1290 1116h-403l-158 -1116h-385l158 1116h-404l41 297h1192z" />
<glyph unicode="U" horiz-adv-x="1413" d="M1417 1413l-123 -846q-31 -225 -102 -352.5t-200.5 -185.5t-344.5 -58q-317 0 -450.5 143.5t-90.5 467.5l119 831h385l-121 -846q-27 -177 6 -239t158 -62q128 0 180 65.5t80 250.5l119 831h385z" />
<glyph unicode="V" horiz-adv-x="1331" d="M1442 1413l-547 -1317q-39 -96 -137 -96h-340q-48 0 -82.5 32t-40.5 79l-178 1302h387l78 -954q7 -97 4 -176h53q15 72 51 172l348 958h404z" />
<glyph unicode="W" horiz-adv-x="2011" d="M2079 1413l-381 -1317q-13 -46 -49.5 -71t-87.5 -25h-338q-50 0 -87.5 33t-37.5 80l-4 827q5 188 6 199h-39q-20 -108 -43 -197l-238 -844q-13 -47 -50 -72.5t-87 -25.5h-344q-51 0 -88.5 33t-36.5 78l-18 1302h381l-31 -926q-1 -37 -5.5 -112t-6.5 -109h38 q22 110 58 238l231 801q14 51 50 79.5t90 28.5h288q52 0 85.5 -35t35.5 -88l16 -805q3 -109 0 -219h39q15 107 48 232l225 915h381z" />
<glyph unicode="X" horiz-adv-x="1345" d="M1004 723l249 -723h-381l-178 614h-2l-360 -614h-414l459 723l-225 690h374l166 -573h4l338 573h396z" />
<glyph unicode="Y" horiz-adv-x="1288" d="M811 444l-61 -444h-388l66 465l-326 948h385l131 -485q21 -97 21 -195h27q13 89 65 195l270 485h412z" />
<glyph unicode="Z" horiz-adv-x="1206" d="M1196 1135l-729 -856h627l-39 -279h-1069l37 279l731 856h-590l39 278h1032z" />
<glyph unicode="[" horiz-adv-x="727" d="M776 1343h-131q-53 0 -61 -49l-193 -1362q-3 -41 35 -41h145l-32 -229h-336q-194 0 -170 193l217 1540q12 84 65 131t136 47h356z" />
<glyph unicode="\" horiz-adv-x="1155" d="M1018 -156h-279l-592 1569h277z" />
<glyph unicode="]" horiz-adv-x="727" d="M195 1573h335q83 0 131 -55t37 -138l-217 -1540q-11 -84 -63 -131t-135 -47h-357l33 229h129q53 0 59 50l193 1362q6 40 -33 40h-145z" />
<glyph unicode="^" horiz-adv-x="985" d="M969 836l-150 -76l-229 330h-17l-327 -330l-140 76l357 477h268z" />
<glyph unicode="_" horiz-adv-x="1114" d="M901 -227h-917l30 227h918z" />
<glyph unicode="`" horiz-adv-x="765" d="M770 1214l-121 -155l-483 225l151 236z" />
<glyph unicode="a" horiz-adv-x="1234" d="M686 1047q106 0 266 -21t234 -43l-139 -983h-287l-2 193q-145 -203 -406 -218q-203 -10 -268.5 129t-22.5 428q12 79 30 143.5t39.5 114.5t51 88.5t59 65.5t70.5 46t78.5 30t90 17t98 8t108.5 2zM498 266q57 3 120 51.5t121 128.5l52 345l-123 2q-55 0 -88 -8t-62.5 -34 t-47.5 -77t-30 -135q-9 -63 -13.5 -102t-5 -72.5t3 -51t13 -30t24 -15.5t36.5 -2z" />
<glyph unicode="b" horiz-adv-x="1239" d="M870 1044q187 0 258 -128.5t29 -413.5q-19 -128 -54 -219.5t-99 -163.5t-167 -108t-247 -36q-132 0 -305 22.5t-258 59.5l192 1377h373l-39 -297q-17 -146 -61 -260q79 76 177 121.5t201 45.5zM780 528q20 140 7.5 182t-70.5 42q-93 0 -230 -101l-61 -413q90 -7 127 -5 q76 2 116.5 25.5t66 85t44.5 184.5z" />
<glyph unicode="c" horiz-adv-x="1071" d="M623 1047q113 0 230 -19t202 -55l-51 -228q-205 3 -334 3q-114 0 -161.5 -49t-66.5 -187q-11 -60 -8.5 -102.5t9.5 -69.5t29 -42t50.5 -20.5t75.5 -5.5q183 0 332 17l26 -240q-171 -74 -426 -74q-276 0 -395.5 130.5t-79.5 418.5q26 190 87.5 302t177 166.5t303.5 54.5z " />
<glyph unicode="d" horiz-adv-x="1241" d="M1253 1434l-202 -1434h-293l-4 172q-201 -197 -400 -197q-182 0 -256.5 135t-36.5 422q16 125 46.5 217t69.5 148.5t92.5 90.5t109 46.5t125.5 12.5q185 0 327 -29q0 114 15 209l35 207h372zM440 539q-23 -138 -12 -197t76 -55q59 3 112.5 29.5t116.5 76.5l55 414h-124 q-50 0 -80.5 -5.5t-56 -20.5t-40.5 -46.5t-26 -76.5t-21 -119z" />
<glyph unicode="e" horiz-adv-x="1179" d="M662 1047q148 0 247.5 -24t153 -72.5t70.5 -114t4 -156.5q-14 -94 -65.5 -149.5t-135.5 -80.5t-225 -36l-277 -21q3 -78 41.5 -103.5t130.5 -25.5q186 0 406 25l24 -232q-184 -82 -467 -82q-161 0 -268.5 34.5t-166 106t-76.5 170t-3 236.5q14 126 46.5 217t81 150.5 t121.5 94.5t158 49t200 14zM778 717q4 50 -20.5 65t-102.5 13q-96 -2 -134.5 -41.5t-63.5 -163.5l172 16q76 7 109.5 28t39.5 83z" />
<glyph unicode="f" horiz-adv-x="845" d="M952 1223h-170q-70 0 -101.5 -27t-41.5 -98l-12 -80h258l-31 -234h-260l-127 -862q-45 -317 -373 -317q-82 0 -301 26l57 232h115q72 0 104 26.5t42 98.5l114 796h-170l29 224l176 10l21 143q23 153 111.5 235.5t260.5 82.5q215 0 359 -27z" />
<glyph unicode="g" horiz-adv-x="1243" d="M598 1047q170 0 337 -19.5t259 -44.5l-119 -842q-17 -135 -58.5 -235.5t-98.5 -162t-136.5 -99t-162 -51t-185.5 -13.5q-51 0 -112 3.5t-154.5 19t-153.5 41.5l21 209q99 -3 272 -3q154 0 253.5 35t141.5 121q17 33 39 108.5t45 114.5q-71 -109 -182 -171t-250 -68 q-198 -7 -265.5 128t-25.5 414q12 79 29 144t36 115t45 88.5t51.5 65.5t60.5 45.5t66.5 29.5t75.5 17t81.5 8t89.5 2zM504 266q119 14 246 180l49 345l-129 2q-52 0 -85 -7t-57 -22t-39.5 -47t-25.5 -71.5t-21 -106.5q-20 -114 -18.5 -176t19.5 -82t61 -15z" />
<glyph unicode="h" horiz-adv-x="1247" d="M899 1047q148 0 219 -76t51 -215l-106 -756h-371l92 651q6 49 -4 64.5t-47 15.5q-58 0 -115 -27t-141 -92l-84 -612h-373l201 1434h373l-45 -334q-17 -120 -57 -246q210 193 407 193z" />
<glyph unicode="i" horiz-adv-x="595" d="M340 1477h147q119 0 107 -117l-14 -107q-8 -54 -36 -78t-85 -24h-152q-117 0 -102 117l14 106q9 103 121 103zM399 0h-370l141 1018h371z" />
<glyph unicode="j" horiz-adv-x="598" d="M342 1477h145q120 0 105 -117l-14 -107q-6 -54 -35.5 -78t-87.5 -24h-148q-119 0 -104 117l14 106q6 53 36.5 78t88.5 25zM547 1018l-135 -938q-21 -155 -112 -285.5t-230 -193.5l-205 172q82 78 123 153.5t55 167.5l131 924h373z" />
<glyph unicode="k" horiz-adv-x="1204" d="M842 537q67 -56 100 -136l188 -401h-385l-174 395q-85 -34 -131 -49l-2 -31l-45 -315h-373l201 1434h373l-80 -584q-19 -120 -82 -252q138 73 240.5 184.5t130.5 235.5h381q-73 -298 -342 -481z" />
<glyph unicode="l" horiz-adv-x="704" d="M594 1434l-156 -1088q-8 -47 10 -63.5t76 -16.5h86l21 -250q-40 -21 -124 -32t-145 -11q-158 0 -240 78t-65 213l166 1170h371z" />
<glyph unicode="m" horiz-adv-x="1802" d="M1464 1047q146 0 215 -77.5t50 -213.5l-107 -756h-369l90 651q6 46 -8.5 63t-46.5 17q-78 0 -198 -100l-89 -631h-358l90 651q7 45 -5 62.5t-48 17.5q-78 0 -201 -94l-88 -637h-371l144 1018h289l8 -162q101 100 192.5 145.5t194.5 45.5q105 0 171 -43t85 -123 q93 87 178.5 126.5t181.5 39.5z" />
<glyph unicode="n" horiz-adv-x="1247" d="M913 1047q131 0 205 -76t53 -215l-106 -756h-373l90 639q8 57 -4.5 76.5t-56.5 15.5q-100 -3 -242 -117l-86 -614h-373l142 1018h293l4 -191q105 105 223 162.5t231 57.5z" />
<glyph unicode="o" d="M659 1047q298 0 417 -128.5t77 -424.5q-41 -287 -174.5 -403t-425.5 -116q-297 0 -418.5 127t-79.5 420q40 291 174 408t430 117zM653 784q-70 0 -108 -23t-61.5 -83.5t-41.5 -183.5q-22 -158 1 -208t122 -50q97 0 137.5 56.5t65.5 229.5q19 104 12.5 162.5t-34.5 79 t-93 20.5z" />
<glyph unicode="p" horiz-adv-x="1239" d="M872 1042q176 0 247.5 -135.5t33.5 -421.5q-14 -107 -37.5 -189t-57.5 -138t-73 -93.5t-90 -57.5t-102.5 -28t-116.5 -8q-138 0 -291 27q0 -93 -14 -191l-31 -186h-373l195 1397h297l-2 -187q87 89 194.5 150t220.5 61zM774 479q17 110 15 170.5t-18 81.5t-56 21 q-46 0 -112 -35t-124 -92l-51 -414h121q44 0 73 3.5t53 15.5t37.5 28.5t25.5 49.5t19.5 71t16.5 100z" />
<glyph unicode="q" horiz-adv-x="1236" d="M616 1047q140 0 312.5 -23t259.5 -61l-193 -1342h-370l34 260q16 132 52 248q-80 -70 -170.5 -112t-175.5 -42q-193 0 -270.5 128t-37.5 415q13 92 31.5 161.5t48 131.5t70.5 104t99 72.5t134.5 45t175.5 14.5zM436 522q-21 -134 -8 -184.5t78 -50.5q40 0 81 16t67.5 34 t76.5 56l55 389q-88 7 -127 4q-58 -2 -91.5 -12t-61 -39t-42.5 -78.5t-28 -134.5z" />
<glyph unicode="r" horiz-adv-x="899" d="M948 1047l-80 -342h-86q-55 0 -118 -16t-183 -56l-86 -633h-375l144 1018h291l8 -162q215 191 416 191h69z" />
<glyph unicode="s" horiz-adv-x="1099" d="M561 1047q121 -2 264 -15t230 -31l-33 -223q-266 4 -393 4q-117 0 -152 -6t-39 -31q-3 -24 18.5 -38t86.5 -35l235 -76q127 -40 182.5 -116.5t40.5 -198.5q-9 -77 -36.5 -131.5t-68 -88t-104.5 -52.5t-132.5 -25.5t-165.5 -6.5q-243 0 -488 41l31 224q24 0 147 -1t187 -1 q165 0 217 9.5t57 39.5q3 23 -17 34t-98 37l-227 78q-254 85 -217 336q19 142 125.5 207.5t349.5 65.5z" />
<glyph unicode="t" horiz-adv-x="872" d="M604 784l-63 -438q-8 -48 6 -64t67 -16h127l19 -248q-58 -22 -151 -33.5t-163 -11.5q-151 0 -229.5 79.5t-58.5 215.5l75 516h-178l29 224l184 10l41 274h367l-39 -274h260l-33 -234h-260z" />
<glyph unicode="u" horiz-adv-x="1230" d="M1186 1018l-142 -1018h-290l-2 182q-114 -109 -217.5 -160t-210.5 -51q-152 0 -222.5 76.5t-50.5 214.5l105 756h374l-94 -651q-6 -45 9 -63.5t51 -18.5q54 0 105 25t130 87l86 621h369z" />
<glyph unicode="v" horiz-adv-x="1206" d="M805 1018h403q-36 -231 -118 -473q-66 -196 -158 -357q-66 -113 -141.5 -150.5t-210.5 -37.5h-273q-42 0 -71.5 27t-34.5 67l-131 924h405l33 -785h20q42 0 63 21t54 92q48 104 90 270q41 162 70 402z" />
<glyph unicode="w" horiz-adv-x="1859" d="M485 240h17q30 0 50.5 27.5t41.5 92.5q27 79 51 209q8 43 15.5 93.5t19 127.5t20.5 136q5 37 33 64.5t76 27.5h321q41 0 69.5 -26t29.5 -66l28 -686h17q31 0 46 29.5t32 97.5q1 5 2 8q22 68 65 246q39 182 58 397h372q-40 -266 -96 -463q-57 -207 -119 -334 q-38 -83 -80.5 -128t-114.5 -69t-186 -24h-155q-44 0 -74.5 28.5t-30.5 69.5l-18 697h-27q-7 -100 -45 -291q-31 -156 -65 -248q-16 -51 -35.5 -90t-40 -66t-48.5 -45.5t-53 -29t-61 -16.5t-65.5 -7.5t-73.5 -1.5h-197q-44 0 -73.5 28t-32.5 70l-74 922h379z" />
<glyph unicode="x" horiz-adv-x="1198" d="M881 520l225 -520h-352l-166 408l-281 -408h-387l377 520l-207 498h348l152 -383l266 383h377z" />
<glyph unicode="y" d="M840 1018h397q-37 -241 -142 -522.5t-192 -434.5q-152 -254 -338.5 -368.5t-435.5 -112.5l-31 211q9 3 47.5 15t49 15.5t43 14.5t45 17.5t40 19t42.5 24t37.5 27.5t41 35t37.5 41h-143q-50 0 -84.5 29.5t-42.5 76.5l-145 912h405l53 -752q0 -14 10 -23.5t23 -9.5h66 q77 167 128 350.5t89 434.5z" />
<glyph unicode="z" horiz-adv-x="1087" d="M1034 768l-573 -518h506l-33 -250h-946l32 250h-2l574 518h-486l33 250h924l-31 -250h2z" />
<glyph unicode="{" horiz-adv-x="727" d="M784 1571l-24 -225q-79 0 -113 -21t-41 -86l-41 -283q-16 -138 -69.5 -202.5t-194.5 -85.5q120 -34 164.5 -104.5t28.5 -182.5l-54 -387q-8 -56 18 -80.5t103 -24.5l-12 -229q-257 -36 -374.5 50.5t-92.5 250.5l65 471q2 17 2 30.5t-1 23t-7 18.5l-9 13.5t-15.5 11 t-17.5 8.5t-23 9.5t-25 10.5l29 234q68 22 85 36q32 26 44 107l49 352q23 166 151 244.5t375 40.5z" />
<glyph unicode="|" horiz-adv-x="550" d="M272 -346h-260l275 1945h260z" />
<glyph unicode="}" horiz-adv-x="727" d="M178 1346l10 229q259 36 376 -51.5t95 -249.5l-51 -354q-3 -22 -3.5 -37.5t-1.5 -27t5 -20.5t7.5 -14t14 -11t16.5 -7.5t23.5 -8t26.5 -8.5l-30 -233q-73 -28 -93 -44q-35 -28 -43 -91l-67 -469q-9 -64 -32 -114.5t-64 -90.5t-100.5 -62t-141.5 -28.5t-186 10.5l24 225 q80 0 112.5 19.5t39.5 83.5l57 403q9 58 24 97.5t45 76t79.5 62t123.5 45.5q-122 18 -163.5 89.5t-20.5 205.5l41 282q8 53 -18 73t-105 20z" />
<glyph unicode="~" horiz-adv-x="1034" d="M281 758q65 -1 233.5 -48t173.5 -48q53 -10 74 13t29 79l155 -15q3 -158 -48.5 -237.5t-143.5 -77.5q-69 1 -235 47.5t-177 48.5q-52 8 -72 -14t-28 -80l-156 14q-4 160 52 239t143 79z" />
<glyph unicode="&#xa1;" horiz-adv-x="612" d="M324 1053h73q66 0 99 -34.5t24 -100.5l-14 -93q-8 -63 -41 -91.5t-100 -28.5h-74q-141 0 -123 135l10 90q20 123 146 123zM426 141l-70 -510h-368l69 510l103 455h291z" />
<glyph unicode="&#xa2;" horiz-adv-x="1083" d="M1020 948h-330q-108 0 -153 -48t-64 -187q-9 -62 -9 -103t8 -69t28.5 -42.5t48.5 -20t72 -5.5q189 0 327 16l25 -237q-145 -67 -355 -74l-45 -178h-276l51 201q-162 42 -229 170.5t-35 355.5q20 138 56 232.5t98 159t152.5 95t219.5 33.5l43 166h279l-49 -186 q118 -20 190 -53z" />
<glyph unicode="&#xa3;" horiz-adv-x="1206" d="M793 1141q-76 0 -109 -25.5t-37 -91.5l-8 -186h328l-35 -185h-303l-2 -57q-4 -64 -19 -113t-44 -86.5t-57 -61.5t-75 -56q65 22 160 22h504l-39 -301h-1051l35 305q197 87 207 305l2 43h-154l23 185h143l14 217q9 118 40 193.5t91.5 118t138.5 58t197 15.5q196 0 457 -21 l-35 -280q-80 2 -372 2z" />
<glyph unicode="&#xa4;" horiz-adv-x="1181" d="M1024 707q-15 -113 -80 -207l131 -144l-164 -149l-131 145q-100 -53 -215 -53q-125 0 -217 61l-143 -131l-148 164l150 135q-38 93 -23 207q14 112 84 211l-131 144l166 149l133 -147q94 51 205 51q121 0 217 -58l152 138l147 -164l-156 -144q38 -93 23 -208zM393 723 q-13 -97 40.5 -156t144.5 -59q96 0 160.5 58t76.5 157q13 98 -38.5 156.5t-143.5 58.5q-100 0 -164 -58t-76 -157z" />
<glyph unicode="&#xa5;" horiz-adv-x="1396" d="M1042 737h170l-28 -211h-1002l25 211h182l-233 676h385l131 -481q18 -81 18 -195h27q14 97 67 195l269 481h409zM170 465h1006l-29 -209h-311l-35 -256h-387l37 256h-306z" />
<glyph unicode="&#xa6;" horiz-adv-x="555" d="M432 780h-260l117 819h260zM274 -346h-260l115 819h260z" />
<glyph unicode="&#xa7;" horiz-adv-x="1107" d="M643 1442q265 -5 465 -25l-41 -258q-72 4 -330 4q-100 0 -140 -13.5t-44 -57.5q-9 -60 78 -111l203 -121q160 -87 184 -211t-68 -305l-260 12q10 61 11 95.5t-11.5 65t-36 52t-71.5 52.5l-267 174q-18 13 -31 23t-29 24t-28 27.5t-25 30.5t-21.5 34.5t-15.5 39.5 t-10.5 45.5t-3 51.5t4.5 59q10 78 40.5 134.5t73 90.5t105 54t125 26.5t143.5 6.5zM139 707l258 -11q-9 -62 -10 -96t12 -64.5t36 -50.5t71 -51l268 -166q68 -44 96 -75q87 -97 62 -271q-11 -76 -38 -131t-66 -89.5t-98 -54t-125 -27t-156 -7.5q-260 0 -469 27l40 256 q8 0 120 -3.5t179 -3.5q57 0 89.5 2t63.5 9.5t45 23t18 41.5q7 32 -8 54t-52 44l-219 130q-160 86 -185 210.5t68 303.5z" />
<glyph unicode="&#xa8;" horiz-adv-x="880" d="M322 1462h133q71 0 59 -63l-20 -146q-5 -34 -20.5 -48.5t-49.5 -14.5h-141q-69 0 -60 65l23 140q4 37 21.5 52t54.5 15zM692 1462h137q69 0 60 -63l-23 -144q-3 -35 -19 -50t-50 -15h-140q-71 0 -59 65l20 142q6 35 23 50t51 15z" />
<glyph unicode="&#xa9;" horiz-adv-x="1634" d="M895 1442q342 0 529 -205.5t149 -544.5q-34 -326 -250.5 -523.5t-552.5 -197.5q-167 0 -302.5 52.5t-225.5 148.5t-130.5 237t-21.5 312q38 328 256.5 524.5t548.5 196.5zM903 1274q-265 0 -436 -157.5t-197 -424.5q-24 -254 105.5 -403.5t386.5 -149.5q172 0 308 69 t221.5 201t103.5 312q25 253 -105 403t-387 150zM901 1120q131 0 266 -33l-28 -194q-45 0 -125 1t-129 1q-84 0 -115.5 -34t-44.5 -150q-13 -75 -5 -116.5t29 -55.5t68 -15q122 -6 268 6l17 -194q-124 -39 -279 -39q-238 0 -323 95t-54 331q29 225 129.5 311t325.5 86z" />
<glyph unicode="&#xaa;" horiz-adv-x="917" d="M551 1262q101 1 198 -12t148 -31l-92 -650h-209l-4 121q-89 -128 -260 -137q-146 -7 -193.5 85t-19.5 286q9 67 26.5 119t38 87.5t52.5 60.5t61.5 38.5t75 21t83.5 9.5t95 2zM432 758q32 1 73 31.5t77 76.5l30 219h-75q-34 0 -53.5 -4.5t-38.5 -20.5t-30 -49t-18 -87 q-16 -107 -10 -138t45 -28z" />
<glyph unicode="&#xab;" horiz-adv-x="1095" d="M588 831l-213 -317l151 -330l-192 -127l-289 418l6 80l344 403zM1042 831l-211 -317l150 -330l-193 -127l-288 418l6 80l344 403z" />
<glyph unicode="&#xac;" horiz-adv-x="1173" d="M1085 764l-69 -483h-293l31 211h-672l39 272h964z" />
<glyph unicode="&#xad;" horiz-adv-x="815" d="M680 412h-602l33 225h602z" />
<glyph unicode="&#xae;" horiz-adv-x="1040" d="M629 1440q192 0 308 -129t89 -338q-27 -203 -162 -324t-344 -121q-197 0 -311.5 132t-87.5 339q28 201 163.5 321t344.5 120zM926 999q18 157 -69.5 253t-233.5 96q-171 0 -276 -101t-126 -272q-10 -81 9.5 -148t61.5 -111t102.5 -68.5t131.5 -24.5q171 0 276 101 t124 275zM602 1225q114 0 167 -32.5t40 -111.5q-8 -85 -104 -100l-3 -4q54 -7 64 -76l18 -131h-157l-13 133q-1 18 -7.5 23.5t-24.5 5.5h-66l-22 -162h-152l61 449q66 6 199 6zM655 1071q5 27 -4 36t-39 9h-69l-13 -90h60q34 2 47.5 10t17.5 35z" />
<glyph unicode="&#xaf;" horiz-adv-x="819" d="M827 1217h-637l33 225h635z" />
<glyph unicode="&#xb0;" horiz-adv-x="694" d="M438 1432q126 0 207 -81.5t68 -207.5q-15 -119 -97.5 -189.5t-209.5 -70.5q-128 0 -206 81t-63 207q14 118 94 189.5t207 71.5zM430 1266q-49 0 -78.5 -28.5t-34.5 -74.5q-6 -53 21.5 -83.5t79.5 -30.5q48 0 79 28t35 78q5 49 -22 80t-80 31z" />
<glyph unicode="&#xb1;" horiz-adv-x="1150" d="M1098 918l-41 -275h-338l-33 -229h-270l33 229h-338l39 275h335l33 231h275l-33 -231h338zM68 338h946l-39 -275h-948z" />
<glyph unicode="&#xb2;" horiz-adv-x="866" d="M530 1599q67 0 117.5 -5t98.5 -20.5t76 -41.5t41.5 -70t4.5 -104q-8 -56 -42 -105.5t-115 -109.5l-236 -176q56 17 119 14l240 -4l-33 -240h-695l23 154q4 31 6.5 44.5t12 33.5t24.5 35l199 155q89 68 131.5 104.5t58.5 63.5q13 23 -0.5 35t-48.5 12q-162 0 -289 -2v203 q141 24 307 24z" />
<glyph unicode="&#xb3;" horiz-adv-x="821" d="M528 1604q183 0 251.5 -49.5t56.5 -163.5q-3 -35 -13.5 -66t-30.5 -61.5t-55 -51t-82 -24.5l-2 -6q180 -23 154 -224q-7 -54 -28 -94.5t-63 -74t-114.5 -51.5t-173.5 -19q-145 0 -322 26l17 201q220 -3 270 -2q121 2 133 82q5 33 -9 47t-56 14h-197l25 175h190 q45 0 62.5 17t19.5 56q2 25 -12 35t-62 10h-260l-4 201q182 23 305 23z" />
<glyph unicode="&#xb4;" horiz-adv-x="765" d="M795 1266l-519 -207l-86 155l480 314z" />
<glyph unicode="&#xb6;" horiz-adv-x="1214" d="M786 1438q224 0 379 -35l-196 -1403h-230l170 1214l-92 3l-231 -1647h-230l119 842q-231 27 -324.5 162t-60.5 362q41 277 198 389.5t498 112.5z" />
<glyph unicode="&#xb7;" horiz-adv-x="526" d="M231 702h78q66 0 99 -34.5t24 -100.5l-12 -90q-8 -63 -41.5 -93t-99.5 -30h-80q-70 0 -101 35.5t-22 102.5l12 90q14 120 143 120z" />
<glyph unicode="&#xb8;" horiz-adv-x="524" d="M29 -207l32 135q106 11 183 9t115 -40t24 -116q-18 -105 -86.5 -173.5t-169 -93.5t-221.5 -8l43 146q180 0 203 106q2 12 0 18t-15.5 10.5t-38 5.5t-69.5 1z" />
<glyph unicode="&#xb9;" horiz-adv-x="638" d="M549 737h-283l74 516q10 66 27 113l-207 -43l-10 180l235 82h283z" />
<glyph unicode="&#xba;" horiz-adv-x="890" d="M516 1268q210 0 292.5 -87t53.5 -290q-26 -192 -114.5 -267t-288.5 -75q-208 0 -291.5 86t-56.5 285q28 192 120 270t285 78zM514 1079q-60 0 -85 -37t-40 -151q-11 -84 2.5 -120t71.5 -36t82.5 38.5t38.5 146.5q14 99 -0.5 129t-69.5 30z" />
<glyph unicode="&#xbb;" horiz-adv-x="1099" d="M29 184l211 318l-150 329l193 127l288 -417l-6 -80l-344 -404zM483 184l213 318l-151 329l192 127l289 -417l-6 -80l-344 -404z" />
<glyph unicode="&#xbc;" horiz-adv-x="1908" d="M256 565l72 518q12 74 26 113l-196 -43l-8 178l225 82h284l-120 -848h-283zM1501 1413l-1016 -1413h-241l1018 1413h239zM1796 188l-100 -22l-25 -166h-252l23 166h-352q-68 0 -94 51t8 107l284 524h258l-241 -467q-17 -33 14 -33h147l27 193l63 139h211l-47 -332h99z " />
<glyph unicode="&#xbd;" horiz-adv-x="1900" d="M539 565h-285l74 518q7 66 24 113l-194 -43l-8 178l223 82h286zM477 0h-239l1015 1413h240zM1468 862q72 0 124.5 -5t101.5 -21t76.5 -42.5t39.5 -71t2 -106.5q-16 -108 -155 -213l-242 -174q56 13 119 13l248 -6l-33 -236h-705l23 152q6 41 14.5 66t30.5 46l199 156 q157 119 188 168q15 25 2 37t-47 12h-291l-2 201q130 24 307 24z" />
<glyph unicode="&#xbe;" horiz-adv-x="2035" d="M784 784q-7 -57 -28 -98.5t-62.5 -74t-111.5 -48.5t-168 -16q-157 0 -332 24l14 201q67 -2 271 -2q71 0 100.5 21t36.5 63q5 31 -9 45t-59 14l-196 2l22 175l193 -3q45 0 63.5 18.5t20.5 57.5q3 25 -11 35t-59 10q-157 0 -268 2l-4 197q160 23 307 23q191 0 259.5 -47 t53.5 -166q-5 -38 -15.5 -68t-30.5 -59.5t-56 -48.5t-86 -25l-6 -6q99 -11 135.5 -69t25.5 -157zM1661 1413l-1014 -1413h-239l1013 1413h240zM1929 193l-104 -25l-23 -166h-250l23 166h-352q-66 0 -92 51.5t6 108.5l284 522h258l-243 -467q-13 -31 16 -31h147l27 189 l64 141h208l-47 -330h99z" />
<glyph unicode="&#xbf;" horiz-adv-x="1071" d="M582 1053h75q66 0 99 -35t24 -100l-14 -93q-6 -63 -39 -91.5t-100 -28.5h-76q-138 0 -123 135l12 90q9 63 43.5 93t98.5 30zM418 592h293q-9 -100 -43.5 -186.5t-80 -145.5t-90.5 -106t-84.5 -90t-52.5 -76q-18 -48 7 -72.5t102 -24.5q93 0 430 5l-4 -250 q-14 -3 -57.5 -11t-56.5 -10.5t-50 -8.5t-56 -8t-56.5 -5.5t-69.5 -5t-76 -2.5t-94 -1q-234 0 -341 84.5t-85 247.5q8 59 33.5 110t61.5 90t79 76t87 76.5t83.5 82.5t72 102.5t48.5 128.5z" />
<glyph unicode="&#xc0;" horiz-adv-x="1359" d="M881 1477l-484 225l152 235l452 -305zM870 330h-432l-129 -330h-399l567 1321q17 44 53 68t82 24h355q46 0 82.5 -31t40.5 -75l200 -1307h-385zM840 621l-37 360q-6 49 -6 147h-58q-17 -74 -45 -145l-141 -362h287z" />
<glyph unicode="&#xc1;" horiz-adv-x="1359" d="M719 1477l-86 155l479 314l125 -263zM870 330h-432l-129 -330h-399l567 1321q17 44 53 68t82 24h355q46 0 82.5 -31t40.5 -75l200 -1307h-385zM840 621l-37 360q-6 49 -6 147h-58q-17 -74 -45 -145l-141 -362h287z" />
<glyph unicode="&#xc2;" horiz-adv-x="1359" d="M487 1475l-88 133l308 276h251l265 -287l-105 -122l-284 194h-17zM870 330h-432l-129 -330h-399l567 1321q17 44 53 68t82 24h355q46 0 82.5 -31t40.5 -75l200 -1307h-385zM840 621l-37 360q-6 49 -6 147h-58q-17 -74 -45 -145l-141 -362h287z" />
<glyph unicode="&#xc3;" horiz-adv-x="1359" d="M588 1536l-154 14q-1 158 53 237.5t146 76.5q64 -1 178 -44.5t139 -47.5q53 -11 74.5 11.5t28.5 78.5l153 -15q6 -158 -46.5 -236.5t-143.5 -76.5q-68 2 -185.5 47t-142.5 49q-51 8 -71.5 -14.5t-28.5 -79.5zM870 330h-432l-129 -330h-399l567 1321q17 44 53 68t82 24 h355q46 0 82.5 -31t40.5 -75l200 -1307h-385zM840 621l-37 360q-6 49 -6 147h-58q-17 -74 -45 -145l-141 -362h287z" />
<glyph unicode="&#xc4;" horiz-adv-x="1359" d="M696 1563h-141q-68 0 -59 65l22 139q5 37 22 52.5t54 15.5h133q71 0 59 -63l-20 -146q-5 -34 -20.5 -48.5t-49.5 -14.5zM1069 1563h-139q-72 0 -60 65l21 141q6 35 23 50.5t51 15.5h137q68 0 59 -63l-22 -144q-3 -35 -19.5 -50t-50.5 -15zM870 330h-432l-129 -330h-399 l567 1321q17 44 53 68t82 24h355q46 0 82.5 -31t40.5 -75l200 -1307h-385zM840 621l-37 360q-6 49 -6 147h-58q-17 -74 -45 -145l-141 -362h287z" />
<glyph unicode="&#xc5;" horiz-adv-x="1359" d="M823 1466q-114 0 -184 74.5t-57 181.5q13 96 83.5 161t178.5 65q110 0 183 -74t60 -180q-13 -97 -83.5 -162.5t-180.5 -65.5zM737 1712q-4 -47 21.5 -75.5t68.5 -28.5q44 0 73 29t32 75q2 43 -23.5 69.5t-68.5 26.5q-41 0 -69.5 -27t-33.5 -69zM870 330h-432l-129 -330 h-399l567 1321q17 44 53 68t82 24h355q46 0 82.5 -31t40.5 -75l200 -1307h-385zM840 621l-37 360q-6 49 -6 147h-58q-17 -74 -45 -145l-141 -362h287z" />
<glyph unicode="&#xc6;" horiz-adv-x="1935" d="M1923 1124h-483q-55 0 -80.5 -20.5t-32.5 -73.5l-27 -178h510l-30 -248h-514l-33 -223q-5 -49 13 -70.5t69 -21.5h487l-6 -275q-43 -5 -87 -8.5t-98.5 -5.5t-88 -3.5t-100.5 -2t-88.5 -0.5h-98.5h-88q-147 0 -223 89t-56 234l4 31h-376l-209 -348h-400l695 1122 q69 114 145 174.5t204.5 90.5t340.5 30q441 0 698 -20zM913 635l60 420q10 74 51 131h-20q-12 -17 -41.5 -62.5t-32.5 -50.5l-262 -438h245z" />
<glyph unicode="&#xc7;" horiz-adv-x="1216" d="M797 1438q148 0 245.5 -12.5t200.5 -41.5l-47 -280q-212 6 -418 6q-70 0 -110.5 -13.5t-75.5 -58.5t-55.5 -126.5t-38.5 -219.5q-25 -153 -19 -239.5t43 -118t127 -31.5q272 0 441 16l14 -282q-108 -34 -214.5 -48t-256.5 -14q-231 0 -359.5 73.5t-172 236t-5.5 436.5 q24 171 60.5 290t89.5 203.5t131.5 132.5t179 69.5t240.5 21.5zM387 -260l33 135q106 11 182.5 9t114.5 -40t24 -116q-18 -105 -86.5 -173.5t-169 -93.5t-221.5 -8l43 146q180 0 203 106q2 12 0 18t-15.5 10.5t-38 5.5t-69.5 1z" />
<glyph unicode="&#xc8;" horiz-adv-x="1187" d="M852 1489l-483 225l151 236l453 -305zM1176 1120h-508q-56 0 -81 -20t-32 -74l-23 -168h531l-33 -262h-534l-29 -213q-6 -47 13.5 -68.5t70.5 -21.5h504l-6 -279q-39 -5 -82 -8.5t-97.5 -5.5t-89.5 -3.5t-104.5 -2t-92 -0.5h-102.5h-90q-172 0 -253.5 98.5t-59.5 263.5 l106 766q19 139 110 218t241 79q173 0 253.5 -0.5t213 -6t219.5 -17.5z" />
<glyph unicode="&#xc9;" horiz-adv-x="1187" d="M688 1489l-86 156l479 313l125 -262zM1176 1120h-508q-56 0 -81 -20t-32 -74l-23 -168h531l-33 -262h-534l-29 -213q-6 -47 13.5 -68.5t70.5 -21.5h504l-6 -279q-39 -5 -82 -8.5t-97.5 -5.5t-89.5 -3.5t-104.5 -2t-92 -0.5h-102.5h-90q-172 0 -253.5 98.5t-59.5 263.5 l106 766q19 139 110 218t241 79q173 0 253.5 -0.5t213 -6t219.5 -17.5z" />
<glyph unicode="&#xca;" horiz-adv-x="1187" d="M459 1487l-88 133l307 276h252l264 -286l-104 -123l-285 194h-17zM1176 1120h-508q-56 0 -81 -20t-32 -74l-23 -168h531l-33 -262h-534l-29 -213q-6 -47 13.5 -68.5t70.5 -21.5h504l-6 -279q-39 -5 -82 -8.5t-97.5 -5.5t-89.5 -3.5t-104.5 -2t-92 -0.5h-102.5h-90 q-172 0 -253.5 98.5t-59.5 263.5l106 766q19 139 110 218t241 79q173 0 253.5 -0.5t213 -6t219.5 -17.5z" />
<glyph unicode="&#xcb;" horiz-adv-x="1187" d="M668 1573h-142q-68 0 -59 65l22 140q4 37 21.5 52t54.5 15h133q72 0 60 -63l-21 -146q-5 -34 -20.5 -48.5t-48.5 -14.5zM1040 1573h-139q-71 0 -59 65l20 142q6 35 23 50t51 15h137q69 0 60 -63l-23 -144q-3 -35 -19.5 -50t-50.5 -15zM1176 1120h-508q-56 0 -81 -20 t-32 -74l-23 -168h531l-33 -262h-534l-29 -213q-6 -47 13.5 -68.5t70.5 -21.5h504l-6 -279q-39 -5 -82 -8.5t-97.5 -5.5t-89.5 -3.5t-104.5 -2t-92 -0.5h-102.5h-90q-172 0 -253.5 98.5t-59.5 263.5l106 766q19 139 110 218t241 79q173 0 253.5 -0.5t213 -6t219.5 -17.5z " />
<glyph unicode="&#xcc;" horiz-adv-x="630" d="M643 1632l-121 -155l-483 225l151 235zM422 0h-383l199 1413h383z" />
<glyph unicode="&#xcd;" horiz-adv-x="630" d="M877 1683l-519 -206l-86 155l480 314zM422 0h-383l199 1413h383z" />
<glyph unicode="&#xce;" horiz-adv-x="630" d="M864 1597l-104 -122l-285 194h-16l-330 -194l-88 133l307 276h252zM422 0h-383l199 1413h383z" />
<glyph unicode="&#xcf;" horiz-adv-x="630" d="M236 1835h133q71 0 59 -63l-20 -146q-5 -34 -20.5 -48.5t-49.5 -14.5h-141q-69 0 -60 65l23 139q5 37 22 52.5t54 15.5zM606 1835h137q69 0 60 -63l-23 -144q-3 -35 -19 -50t-50 -15h-140q-71 0 -59 65l20 141q6 35 23 50.5t51 15.5zM422 0h-383l199 1413h383z" />
<glyph unicode="&#xd0;" horiz-adv-x="1413" d="M782 1434q100 0 179 -11t146 -35.5t114 -64.5t80.5 -97.5t49 -135t15 -176.5t-17.5 -222q-21 -149 -49 -256.5t-70.5 -188t-95 -131t-129 -81.5t-165 -43t-210.5 -12q-293 0 -590 20l92 653h-104l24 183h105l82 577q269 21 544 21zM944 721q15 112 18.5 181t-3 121 t-31 77t-61 36t-97.5 11h-184l-45 -311h211l-27 -183h-209l-53 -383l160 -2q75 0 122.5 16.5t88 65.5t66 138t44.5 233z" />
<glyph unicode="&#xd1;" horiz-adv-x="1482" d="M696 1864q64 -1 178.5 -44.5t139.5 -47.5q53 -11 74 11.5t28 78.5l154 -15q6 -157 -47 -236t-144 -77q-68 2 -185 47t-142 49q-51 8 -72 -14.5t-29 -79.5l-153 14q-1 159 52.5 238t145.5 76zM1477 1413l-183 -1286q-9 -66 -42 -96.5t-99 -30.5h-160q-55 0 -81.5 27 t-55.5 92l-260 608q-39 82 -68 223h-16q0 -125 -14 -243l-101 -707h-358l180 1286q9 66 43 96.5t100 30.5h158q29 0 50 -7.5t37 -26t25.5 -35.5t24.5 -50l254 -583q49 -112 80 -238h21q-6 128 8 236l98 704h359z" />
<glyph unicode="&#xd2;" horiz-adv-x="1415" d="M1036 1632l-121 -155l-483 225l152 235zM797 1442q98 0 175.5 -11t143 -36.5t112 -66t79 -98.5t47.5 -136.5t15 -178t-17 -223.5q-20 -144 -49 -252.5t-72.5 -189t-97.5 -134t-128.5 -86t-160 -46t-197.5 -13.5q-101 0 -180 11.5t-144.5 36.5t-111 66t-76.5 99 t-44.5 136.5t-12.5 177.5t18 223q29 213 80 350.5t137 221t200.5 116.5t283.5 33zM788 1147q-56 0 -94 -12.5t-68.5 -40.5t-52.5 -83t-39 -129.5t-34 -189.5q-16 -106 -20.5 -177t2 -121.5t29 -77.5t57 -38.5t89.5 -11.5q93 0 145 38t85 132.5t61 284.5q16 107 19.5 178 t-3 121.5t-29.5 77t-57.5 38t-89.5 11.5z" />
<glyph unicode="&#xd3;" horiz-adv-x="1415" d="M1270 1683l-518 -206l-86 155l479 314zM797 1442q98 0 175.5 -11t143 -36.5t112 -66t79 -98.5t47.5 -136.5t15 -178t-17 -223.5q-20 -144 -49 -252.5t-72.5 -189t-97.5 -134t-128.5 -86t-160 -46t-197.5 -13.5q-101 0 -180 11.5t-144.5 36.5t-111 66t-76.5 99 t-44.5 136.5t-12.5 177.5t18 223q29 213 80 350.5t137 221t200.5 116.5t283.5 33zM788 1147q-56 0 -94 -12.5t-68.5 -40.5t-52.5 -83t-39 -129.5t-34 -189.5q-16 -106 -20.5 -177t2 -121.5t29 -77.5t57 -38.5t89.5 -11.5q93 0 145 38t85 132.5t61 284.5q16 107 19.5 178 t-3 121.5t-29.5 77t-57.5 38t-89.5 11.5z" />
<glyph unicode="&#xd4;" horiz-adv-x="1415" d="M1257 1597l-104 -122l-285 194h-16l-330 -194l-88 133l307 276h252zM797 1442q98 0 175.5 -11t143 -36.5t112 -66t79 -98.5t47.5 -136.5t15 -178t-17 -223.5q-20 -144 -49 -252.5t-72.5 -189t-97.5 -134t-128.5 -86t-160 -46t-197.5 -13.5q-101 0 -180 11.5t-144.5 36.5 t-111 66t-76.5 99t-44.5 136.5t-12.5 177.5t18 223q29 213 80 350.5t137 221t200.5 116.5t283.5 33zM788 1147q-56 0 -94 -12.5t-68.5 -40.5t-52.5 -83t-39 -129.5t-34 -189.5q-16 -106 -20.5 -177t2 -121.5t29 -77.5t57 -38.5t89.5 -11.5q93 0 145 38t85 132.5t61 284.5 q16 107 19.5 178t-3 121.5t-29.5 77t-57.5 38t-89.5 11.5z" />
<glyph unicode="&#xd5;" horiz-adv-x="1415" d="M668 1864q64 -1 178 -44.5t139 -47.5q53 -11 74 11.5t28 78.5l154 -15q6 -158 -46.5 -236.5t-143.5 -76.5q-68 2 -185.5 47t-142.5 49q-51 8 -71.5 -14.5t-28.5 -79.5l-154 14q-1 158 53 237.5t146 76.5zM797 1442q98 0 175.5 -11t143 -36.5t112 -66t79 -98.5 t47.5 -136.5t15 -178t-17 -223.5q-20 -144 -49 -252.5t-72.5 -189t-97.5 -134t-128.5 -86t-160 -46t-197.5 -13.5q-101 0 -180 11.5t-144.5 36.5t-111 66t-76.5 99t-44.5 136.5t-12.5 177.5t18 223q29 213 80 350.5t137 221t200.5 116.5t283.5 33zM788 1147q-56 0 -94 -12.5 t-68.5 -40.5t-52.5 -83t-39 -129.5t-34 -189.5q-16 -106 -20.5 -177t2 -121.5t29 -77.5t57 -38.5t89.5 -11.5q93 0 145 38t85 132.5t61 284.5q16 107 19.5 178t-3 121.5t-29.5 77t-57.5 38t-89.5 11.5z" />
<glyph unicode="&#xd6;" horiz-adv-x="1415" d="M629 1835h133q71 0 59 -63l-20 -146q-5 -34 -20.5 -48.5t-49.5 -14.5h-141q-69 0 -60 65l23 139q5 37 22 52.5t54 15.5zM999 1835h138q68 0 59 -63l-22 -144q-3 -35 -19.5 -50t-50.5 -15h-139q-72 0 -60 65l21 141q6 35 22.5 50.5t50.5 15.5zM797 1442q98 0 175.5 -11 t143 -36.5t112 -66t79 -98.5t47.5 -136.5t15 -178t-17 -223.5q-20 -144 -49 -252.5t-72.5 -189t-97.5 -134t-128.5 -86t-160 -46t-197.5 -13.5q-101 0 -180 11.5t-144.5 36.5t-111 66t-76.5 99t-44.5 136.5t-12.5 177.5t18 223q29 213 80 350.5t137 221t200.5 116.5 t283.5 33zM788 1147q-56 0 -94 -12.5t-68.5 -40.5t-52.5 -83t-39 -129.5t-34 -189.5q-16 -106 -20.5 -177t2 -121.5t29 -77.5t57 -38.5t89.5 -11.5q93 0 145 38t85 132.5t61 284.5q16 107 19.5 178t-3 121.5t-29.5 77t-57.5 38t-89.5 11.5z" />
<glyph unicode="&#xd7;" horiz-adv-x="1075" d="M743 596l232 -229l-199 -217l-262 266l-338 -266l-141 225l293 229l-224 225l197 203l254 -250l342 269l141 -224z" />
<glyph unicode="&#xd8;" horiz-adv-x="1415" d="M1384 1516l-129 -216q156 -170 97 -608q-20 -144 -49 -252.5t-72.5 -189t-97.5 -134t-128.5 -86t-160 -46t-197.5 -13.5q-91 0 -180 13l-123 -203l-266 137l115 186q-81 84 -104.5 234t7.5 383q29 213 80 350.5t137 221t200.5 116.5t283.5 33q102 0 188 -12l133 223z M948 721q16 107 19.5 178t-3 121.5t-29.5 77t-57.5 38t-89.5 11.5q-56 0 -94 -12.5t-68.5 -40.5t-52.5 -83t-39 -129.5t-34 -189.5q-16 -106 -20.5 -177t2 -121.5t29 -77.5t57 -38.5t89.5 -11.5q93 0 145 38t85 132.5t61 284.5z" />
<glyph unicode="&#xd9;" horiz-adv-x="1413" d="M1030 1632l-121 -155l-483 225l152 235zM1415 1413l-121 -846q-31 -225 -102 -352.5t-201 -185.5t-346 -58q-316 0 -449 143t-90 468l119 831h383l-119 -846q-27 -177 5.5 -239t156.5 -62q129 0 180.5 65t81.5 251l117 831h385z" />
<glyph unicode="&#xda;" horiz-adv-x="1413" d="M1264 1683l-519 -206l-86 155l480 314zM1415 1413l-121 -846q-31 -225 -102 -352.5t-201 -185.5t-346 -58q-316 0 -449 143t-90 468l119 831h383l-119 -846q-27 -177 5.5 -239t156.5 -62q129 0 180.5 65t81.5 251l117 831h385z" />
<glyph unicode="&#xdb;" horiz-adv-x="1413" d="M1251 1597l-104 -122l-285 194h-16l-330 -194l-88 133l307 276h252zM1415 1413l-121 -846q-31 -225 -102 -352.5t-201 -185.5t-346 -58q-316 0 -449 143t-90 468l119 831h383l-119 -846q-27 -177 5.5 -239t156.5 -62q129 0 180.5 65t81.5 251l117 831h385z" />
<glyph unicode="&#xdc;" horiz-adv-x="1413" d="M623 1835h133q71 0 59 -63l-20 -146q-5 -34 -20.5 -48.5t-49.5 -14.5h-141q-69 0 -60 65l23 139q5 37 22 52.5t54 15.5zM993 1835h137q69 0 60 -63l-23 -144q-3 -35 -19 -50t-50 -15h-140q-71 0 -59 65l21 141q6 35 22.5 50.5t50.5 15.5zM1415 1413l-121 -846 q-31 -225 -102 -352.5t-201 -185.5t-346 -58q-316 0 -449 143t-90 468l119 831h383l-119 -846q-27 -177 5.5 -239t156.5 -62q129 0 180.5 65t81.5 251l117 831h385z" />
<glyph unicode="&#xdd;" horiz-adv-x="1288" d="M676 1477l-86 155l479 314l125 -263zM811 444l-61 -444h-388l66 465l-326 948h385l131 -485q22 -102 19 -195h29q14 98 65 195l270 485h412z" />
<glyph unicode="&#xde;" horiz-adv-x="1277" d="M590 1180h155q153 0 252.5 -23t163.5 -79t83.5 -150.5t0.5 -237.5q-19 -137 -55.5 -224.5t-102 -139.5t-155 -72.5t-225.5 -20.5q-115 0 -248 17l-35 -250h-385l199 1413h385zM862 719q15 107 -8.5 143.5t-114.5 36.5h-188l-55 -385h174q51 0 80.5 7t53 29t36 61.5 t22.5 107.5z" />
<glyph unicode="&#xdf;" horiz-adv-x="1468" d="M1149 643l117 -96q84 -77 114 -145t17 -154q-16 -99 -61.5 -157t-136 -86t-241.5 -28q-111 0 -346 23l33 236q39 0 116 -1.5t118 -1.5q76 0 112 14.5t37 57.5q1 29 -20.5 57t-96.5 95l-90 63q-69 61 -99 117t-20 133q8 59 42 103t119 124l4.5 4.5t4.5 4t5 4.5 q65 62 87.5 93.5t26.5 67.5q6 48 -19.5 65t-111.5 17q-119 0 -164.5 -31.5t-58.5 -123.5l-164 -1176q-23 -152 -111.5 -234.5t-267.5 -82.5q-77 0 -293 26l58 232h114q70 0 100 26t42 99l112 796h-174l29 224l178 10l19 137q15 106 51.5 174t106.5 108.5t164.5 56 t236.5 15.5q214 0 329 -36t151 -108t15 -196q-19 -132 -135 -241q-16 -15 -48.5 -44t-46 -42.5t-28 -34t-18.5 -39.5q-3 -20 9.5 -40.5t27 -35t55.5 -49.5z" />
<glyph unicode="&#xe0;" horiz-adv-x="1234" d="M784 1098l-483 225l152 236l452 -306zM686 1047q106 0 266 -21t234 -43l-137 -983h-289v195q-144 -205 -408 -220q-203 -10 -268.5 129t-22.5 428q12 79 30 143.5t39.5 114.5t51 88.5t59 65.5t70.5 46t78.5 30t90 17t98 8t108.5 2zM498 266q57 3 120 51.5t121 128.5 l52 345l-123 2q-55 0 -88 -8t-62.5 -34t-47.5 -77t-30 -135q-9 -63 -13.5 -102t-5 -72.5t3 -51t13 -30t24 -15.5t36.5 -2z" />
<glyph unicode="&#xe1;" horiz-adv-x="1234" d="M623 1098l-86 155l479 314l125 -262zM686 1047q106 0 266 -21t234 -43l-137 -983h-289v195q-144 -205 -408 -220q-203 -10 -268.5 129t-22.5 428q12 79 30 143.5t39.5 114.5t51 88.5t59 65.5t70.5 46t78.5 30t90 17t98 8t108.5 2zM498 266q57 3 120 51.5t121 128.5 l52 345l-123 2q-55 0 -88 -8t-62.5 -34t-47.5 -77t-30 -135q-9 -63 -13.5 -102t-5 -72.5t3 -51t13 -30t24 -15.5t36.5 -2z" />
<glyph unicode="&#xe2;" horiz-adv-x="1234" d="M391 1096l-88 133l307 276h252l264 -286l-104 -123l-285 194h-16zM686 1047q106 0 266 -21t234 -43l-137 -983h-289v195q-144 -205 -408 -220q-203 -10 -268.5 129t-22.5 428q12 79 30 143.5t39.5 114.5t51 88.5t59 65.5t70.5 46t78.5 30t90 17t98 8t108.5 2zM498 266 q57 3 120 51.5t121 128.5l52 345l-123 2q-55 0 -88 -8t-62.5 -34t-47.5 -77t-30 -135q-9 -63 -13.5 -102t-5 -72.5t3 -51t13 -30t24 -15.5t36.5 -2z" />
<glyph unicode="&#xe3;" horiz-adv-x="1234" d="M492 1155l-154 14q-1 158 53 237.5t146 76.5q64 -1 178 -44.5t139 -47.5q53 -11 74 11.5t28 78.5l154 -15q6 -158 -46.5 -236.5t-143.5 -76.5q-68 2 -185.5 47t-142.5 49q-51 8 -71.5 -14.5t-28.5 -79.5zM686 1047q106 0 266 -21t234 -43l-137 -983h-289v195 q-144 -205 -408 -220q-203 -10 -268.5 129t-22.5 428q12 79 30 143.5t39.5 114.5t51 88.5t59 65.5t70.5 46t78.5 30t90 17t98 8t108.5 2zM498 266q57 3 120 51.5t121 128.5l52 345l-123 2q-55 0 -88 -8t-62.5 -34t-47.5 -77t-30 -135q-9 -63 -13.5 -102t-5 -72.5t3 -51 t13 -30t24 -15.5t36.5 -2z" />
<glyph unicode="&#xe4;" horiz-adv-x="1234" d="M600 1182h-141q-69 0 -60 65l23 139q5 37 22 52.5t54 15.5h133q71 0 59 -63l-20 -146q-5 -34 -20.5 -48.5t-49.5 -14.5zM973 1182h-139q-72 0 -60 65l21 142q6 35 22.5 50t50.5 15h138q68 0 59 -63l-23 -144q-3 -35 -19 -50t-50 -15zM686 1047q106 0 266 -21t234 -43 l-137 -983h-289v195q-144 -205 -408 -220q-203 -10 -268.5 129t-22.5 428q12 79 30 143.5t39.5 114.5t51 88.5t59 65.5t70.5 46t78.5 30t90 17t98 8t108.5 2zM498 266q57 3 120 51.5t121 128.5l52 345l-123 2q-55 0 -88 -8t-62.5 -34t-47.5 -77t-30 -135q-9 -63 -13.5 -102 t-5 -72.5t3 -51t13 -30t24 -15.5t36.5 -2z" />
<glyph unicode="&#xe5;" horiz-adv-x="1234" d="M727 1085q-114 0 -184.5 74.5t-57.5 181.5q13 96 83.5 161t179.5 65q110 0 183 -74t60 -180q-13 -97 -83.5 -162.5t-180.5 -65.5zM641 1331q-4 -47 21.5 -75.5t68.5 -28.5q44 0 73 29t32 75q1 43 -24.5 69.5t-68.5 26.5q-41 0 -69 -27t-33 -69zM686 1047q106 0 266 -21 t234 -43l-137 -983h-289v195q-144 -205 -408 -220q-203 -10 -268.5 129t-22.5 428q12 79 30 143.5t39.5 114.5t51 88.5t59 65.5t70.5 46t78.5 30t90 17t98 8t108.5 2zM498 266q57 3 120 51.5t121 128.5l52 345l-123 2q-55 0 -88 -8t-62.5 -34t-47.5 -77t-30 -135 q-9 -63 -13.5 -102t-5 -72.5t3 -51t13 -30t24 -15.5t36.5 -2z" />
<glyph unicode="&#xe6;" horiz-adv-x="1853" d="M1339 1047q147 0 245.5 -24t151.5 -72.5t70 -114.5t4 -156q-14 -94 -65 -149.5t-134 -80.5t-222 -36l-281 -23q3 -76 42.5 -101.5t135.5 -25.5q182 0 395 25l25 -232q-181 -82 -459 -82q-204 0 -321 58t-162 174q-144 -217 -412 -232q-200 -10 -265 128.5t-24 428.5 q11 79 27 143.5t35 114.5t45 88t52 65t62 46t69 30t79.5 17.5t86 8.5t95.5 2q212 0 439 -35q112 35 286 35zM1452 717q4 50 -20 65t-99 13q-99 -2 -139.5 -42t-63.5 -165l175 18q75 7 108 28t39 83zM500 266q105 6 233 172q0 40 6 84q17 159 66 269l-139 2q-77 0 -115.5 -16 t-65 -70.5t-41.5 -167.5q-9 -62 -14 -101.5t-6 -73t2.5 -51t13 -29.5t24 -15.5t36.5 -2.5z" />
<glyph unicode="&#xe7;" horiz-adv-x="1071" d="M623 1047q259 0 432 -74l-49 -228q-208 3 -336 3q-113 0 -161 -49.5t-67 -186.5q-7 -52 -8 -88.5t4.5 -64t16.5 -44t32 -26.5t47 -13.5t64 -3.5q185 0 334 17l26 -240q-171 -74 -426 -74q-277 0 -397 130.5t-80 418.5q40 283 166.5 403t401.5 120zM299 -231l33 135 q106 11 182.5 8.5t114.5 -40.5t24 -116q-18 -105 -86.5 -173.5t-169 -93t-221.5 -7.5l43 145q180 0 203 107q2 12 0 18t-15.5 10.5t-38 5.5t-69.5 1z" />
<glyph unicode="&#xe8;" horiz-adv-x="1179" d="M766 1098l-483 225l151 236l453 -306zM662 1047q148 0 247.5 -24t153 -72.5t70.5 -114t4 -156.5q-21 -137 -118.5 -193.5t-309.5 -72.5l-275 -21q3 -78 41.5 -103.5t130.5 -25.5q183 0 406 25l24 -232q-184 -82 -467 -82q-161 0 -268.5 34.5t-166 106t-76.5 170t-3 236.5 q14 126 46.5 217t81 150.5t121.5 94.5t158 49t200 14zM778 717q4 50 -20.5 65t-102.5 13q-96 -2 -134.5 -41.5t-63.5 -163.5l170 16q77 7 110.5 28t40.5 83z" />
<glyph unicode="&#xe9;" horiz-adv-x="1179" d="M602 1098l-86 155l479 314l125 -262zM662 1047q148 0 247.5 -24t153 -72.5t70.5 -114t4 -156.5q-21 -137 -118.5 -193.5t-309.5 -72.5l-275 -21q3 -78 41.5 -103.5t130.5 -25.5q183 0 406 25l24 -232q-184 -82 -467 -82q-161 0 -268.5 34.5t-166 106t-76.5 170t-3 236.5 q14 126 46.5 217t81 150.5t121.5 94.5t158 49t200 14zM778 717q4 50 -20.5 65t-102.5 13q-96 -2 -134.5 -41.5t-63.5 -163.5l170 16q77 7 110.5 28t40.5 83z" />
<glyph unicode="&#xea;" horiz-adv-x="1179" d="M373 1096l-88 133l307 276h252l264 -286l-104 -123l-285 194h-17zM662 1047q148 0 247.5 -24t153 -72.5t70.5 -114t4 -156.5q-21 -137 -118.5 -193.5t-309.5 -72.5l-275 -21q3 -78 41.5 -103.5t130.5 -25.5q183 0 406 25l24 -232q-184 -82 -467 -82q-161 0 -268.5 34.5 t-166 106t-76.5 170t-3 236.5q14 126 46.5 217t81 150.5t121.5 94.5t158 49t200 14zM778 717q4 50 -20.5 65t-102.5 13q-96 -2 -134.5 -41.5t-63.5 -163.5l170 16q77 7 110.5 28t40.5 83z" />
<glyph unicode="&#xeb;" horiz-adv-x="1179" d="M582 1182h-142q-68 0 -59 65l22 139q5 37 22 52.5t54 15.5h133q72 0 60 -63l-21 -146q-5 -34 -20.5 -48.5t-48.5 -14.5zM954 1182h-139q-71 0 -59 65l20 142q6 35 23 50t51 15h137q69 0 60 -63l-23 -144q-3 -35 -19.5 -50t-50.5 -15zM662 1047q148 0 247.5 -24t153 -72.5 t70.5 -114t4 -156.5q-21 -137 -118.5 -193.5t-309.5 -72.5l-275 -21q3 -78 41.5 -103.5t130.5 -25.5q183 0 406 25l24 -232q-184 -82 -467 -82q-161 0 -268.5 34.5t-166 106t-76.5 170t-3 236.5q14 126 46.5 217t81 150.5t121.5 94.5t158 49t200 14zM778 717q4 50 -20.5 65 t-102.5 13q-96 -2 -134.5 -41.5t-63.5 -163.5l170 16q77 7 110.5 28t40.5 83z" />
<glyph unicode="&#xec;" horiz-adv-x="598" d="M563 1253l-121 -155l-483 225l152 236zM403 0h-374l143 1018h373z" />
<glyph unicode="&#xed;" horiz-adv-x="598" d="M797 1305l-518 -207l-86 155l479 314zM403 0h-374l143 1018h373z" />
<glyph unicode="&#xee;" horiz-adv-x="598" d="M784 1219l-104 -123l-285 194h-16l-330 -194l-88 133l307 276h252zM403 0h-374l143 1018h373z" />
<glyph unicode="&#xef;" horiz-adv-x="598" d="M156 1454h133q71 0 59 -63l-20 -146q-5 -34 -20.5 -48.5t-49.5 -14.5h-141q-69 0 -60 65l23 139q5 37 22 52.5t54 15.5zM526 1454h138q68 0 59 -63l-23 -144q-3 -35 -19 -50t-50 -15h-139q-72 0 -60 65l21 142q6 35 22.5 50t50.5 15zM403 0h-374l143 1018h373z" />
<glyph unicode="&#xf0;" horiz-adv-x="1210" d="M1221 1321l-164 -139q125 -207 76 -604q-41 -327 -184.5 -467t-430.5 -140q-258 0 -380 120t-89 364q31 243 149 357t332 114q148 0 238 -62q0 198 -91 270t-323 58l43 238q284 15 457 -66l184 162zM543 236q95 0 135.5 77.5t69.5 292.5l6 43q-63 29 -123 29 q-93 0 -133 -52t-60 -177q-19 -124 1.5 -168.5t103.5 -44.5z" />
<glyph unicode="&#xf1;" horiz-adv-x="1247" d="M487 1155l-153 14q-1 159 52.5 238t145.5 76q64 -1 178.5 -44.5t139.5 -47.5q53 -11 74 11.5t28 78.5l154 -15q6 -157 -47 -236t-144 -77q-68 2 -185 47t-142 49q-51 8 -72 -14.5t-29 -79.5zM913 1047q131 0 204 -76t54 -215l-106 -756h-375l92 639q6 57 -6 76.5 t-55 15.5q-100 -3 -242 -117l-86 -614h-373l142 1018h291l6 -191q106 105 223 162.5t231 57.5z" />
<glyph unicode="&#xf2;" d="M891 1253l-121 -155l-483 225l151 236zM662 1047q298 0 416.5 -128.5t76.5 -424.5q-41 -287 -174.5 -403t-425.5 -116q-297 0 -418.5 127t-81.5 420q41 291 176 408t431 117zM653 784q-69 0 -107 -23t-62 -84t-42 -183q-22 -158 1.5 -208t121.5 -50t138.5 56.5 t66.5 229.5q18 104 11 162.5t-35 79t-93 20.5z" />
<glyph unicode="&#xf3;" d="M1124 1305l-518 -207l-86 155l479 314zM662 1047q298 0 416.5 -128.5t76.5 -424.5q-41 -287 -174.5 -403t-425.5 -116q-297 0 -418.5 127t-81.5 420q41 291 176 408t431 117zM653 784q-69 0 -107 -23t-62 -84t-42 -183q-22 -158 1.5 -208t121.5 -50t138.5 56.5 t66.5 229.5q18 104 11 162.5t-35 79t-93 20.5z" />
<glyph unicode="&#xf4;" d="M1112 1219l-104 -123l-285 194h-16l-330 -194l-88 133l307 276h252zM662 1047q298 0 416.5 -128.5t76.5 -424.5q-41 -287 -174.5 -403t-425.5 -116q-297 0 -418.5 127t-81.5 420q41 291 176 408t431 117zM653 784q-69 0 -107 -23t-62 -84t-42 -183q-22 -158 1.5 -208 t121.5 -50t138.5 56.5t66.5 229.5q18 104 11 162.5t-35 79t-93 20.5z" />
<glyph unicode="&#xf5;" d="M522 1483q64 -1 178.5 -44.5t139.5 -47.5q53 -11 74 11.5t28 78.5l154 -15q6 -157 -47 -236t-144 -77q-68 2 -185 47t-142 49q-51 8 -72 -14.5t-29 -79.5l-153 14q-1 159 52.5 238t145.5 76zM662 1047q298 0 416.5 -128.5t76.5 -424.5q-41 -287 -174.5 -403t-425.5 -116 q-297 0 -418.5 127t-81.5 420q41 291 176 408t431 117zM653 784q-69 0 -107 -23t-62 -84t-42 -183q-22 -158 1.5 -208t121.5 -50t138.5 56.5t66.5 229.5q18 104 11 162.5t-35 79t-93 20.5z" />
<glyph unicode="&#xf6;" d="M483 1454h133q72 0 60 -63l-21 -146q-5 -34 -20.5 -48.5t-48.5 -14.5h-142q-68 0 -59 65l23 139q5 37 21.5 52.5t53.5 15.5zM854 1454h137q69 0 60 -63l-23 -144q-3 -35 -19.5 -50t-50.5 -15h-139q-71 0 -59 65l20 142q6 35 23 50t51 15zM662 1047q298 0 416.5 -128.5 t76.5 -424.5q-41 -287 -174.5 -403t-425.5 -116q-297 0 -418.5 127t-81.5 420q41 291 176 408t431 117zM653 784q-69 0 -107 -23t-62 -84t-42 -183q-22 -158 1.5 -208t121.5 -50t138.5 56.5t66.5 229.5q18 104 11 162.5t-35 79t-93 20.5z" />
<glyph unicode="&#xf7;" horiz-adv-x="1099" d="M588 1163h76q83 0 113 -31.5t18 -111.5l-4 -45q-12 -83 -47 -113.5t-115 -30.5h-84q-85 0 -114.5 33t-18.5 115l6 45q12 81 49 110t121 29zM1010 463h-961l41 272h961zM471 360h74q85 0 115 -31.5t18 -113.5l-6 -47q-10 -81 -44 -110t-116 -29h-84q-85 0 -114.5 33 t-16.5 114l6 45q9 80 46.5 109.5t121.5 29.5z" />
<glyph unicode="&#xf8;" d="M1145 1108l-98 -158q156 -129 108 -456q-41 -287 -174.5 -403t-425.5 -116q-21 0 -104 5l-119 -193l-234 127l90 143q-181 123 -133 465q41 291 176 408t431 117q58 0 126 -7l123 197zM770 522q18 104 11 162.5t-35 79t-93 20.5q-69 0 -107 -23t-62 -84t-42 -183 q-22 -158 1.5 -208t121.5 -50t138.5 56.5t66.5 229.5z" />
<glyph unicode="&#xf9;" horiz-adv-x="1230" d="M770 1116l-483 225l151 236l453 -305zM1186 1018l-142 -1018h-288l-4 184q-114 -110 -217.5 -161.5t-210.5 -51.5q-152 0 -222.5 76.5t-50.5 214.5l105 756h372l-94 -651q-6 -45 9.5 -63.5t52.5 -18.5q54 0 105 25t130 87l86 621h369z" />
<glyph unicode="&#xfa;" horiz-adv-x="1230" d="M606 1116l-86 156l479 313l125 -262zM1186 1018l-142 -1018h-288l-4 184q-114 -110 -217.5 -161.5t-210.5 -51.5q-152 0 -222.5 76.5t-50.5 214.5l105 756h372l-94 -651q-6 -45 9.5 -63.5t52.5 -18.5q54 0 105 25t130 87l86 621h369z" />
<glyph unicode="&#xfb;" horiz-adv-x="1230" d="M377 1114l-88 133l307 277h252l264 -287l-104 -123l-285 195h-16zM1186 1018l-142 -1018h-288l-4 184q-114 -110 -217.5 -161.5t-210.5 -51.5q-152 0 -222.5 76.5t-50.5 214.5l105 756h372l-94 -651q-6 -45 9.5 -63.5t52.5 -18.5q54 0 105 25t130 87l86 621h369z" />
<glyph unicode="&#xfc;" horiz-adv-x="1230" d="M586 1200h-142q-68 0 -59 66l23 139q5 37 21.5 52.5t53.5 15.5h133q72 0 60 -64l-21 -145q-5 -34 -20.5 -49t-48.5 -15zM958 1200h-139q-71 0 -59 66l20 141q6 35 23 50.5t51 15.5h137q69 0 60 -64l-23 -143q-3 -35 -19.5 -50.5t-50.5 -15.5zM1186 1018l-142 -1018h-288 l-4 184q-114 -110 -217.5 -161.5t-210.5 -51.5q-152 0 -222.5 76.5t-50.5 214.5l105 756h372l-94 -651q-6 -45 9.5 -63.5t52.5 -18.5q54 0 105 25t130 87l86 621h369z" />
<glyph unicode="&#xfd;" d="M582 1098l-86 155l479 314l125 -262zM840 1018h397q-37 -241 -142 -522.5t-192 -434.5q-152 -254 -338.5 -368.5t-435.5 -112.5l-31 211q9 3 47.5 15t49 15.5t43 14.5t45 17.5t40 19t42.5 24t37.5 27.5t41 35t37.5 41h-145q-49 0 -84 30t-41 76l-145 912h405l51 -752 q2 -14 12 -23.5t23 -9.5h66q77 167 128 350.5t89 434.5z" />
<glyph unicode="&#xfe;" horiz-adv-x="1239" d="M856 1042q192 0 263 -132.5t36 -424.5q-14 -117 -44 -206.5t-70 -147t-94 -94t-111.5 -51.5t-126.5 -15q-176 0 -320 27q-8 -111 -18 -162l-31 -215h-371l252 1813h373l-33 -244q-20 -155 -53 -279l6 -14q148 145 342 145zM774 479q7 57 10.5 91.5t4.5 69t-3 52.5 t-13 33.5t-24 21t-38 5.5q-71 0 -126.5 -45.5t-111.5 -131.5l-49 -364h127q42 0 69 3t51 14t38.5 28t27.5 48.5t21 72.5t16 102z" />
<glyph unicode="&#xff;" d="M559 1182h-141q-69 0 -60 65l23 139q5 37 22 52.5t54 15.5h133q71 0 59 -63l-20 -146q-5 -34 -20.5 -48.5t-49.5 -14.5zM932 1182h-139q-72 0 -60 65l21 142q6 35 22.5 50t50.5 15h138q68 0 59 -63l-23 -144q-3 -35 -19 -50t-50 -15zM840 1018h397q-37 -241 -142 -522.5 t-192 -434.5q-152 -254 -338.5 -368.5t-435.5 -112.5l-31 211q9 3 47.5 15t49 15.5t43 14.5t45 17.5t40 19t42.5 24t37.5 27.5t41 35t37.5 41h-145q-49 0 -84 30t-41 76l-145 912h405l51 -752q2 -14 12 -23.5t23 -9.5h66q77 167 128 350.5t89 434.5z" />
<glyph unicode="&#x152;" horiz-adv-x="1974" d="M1958 1120h-498q-43 0 -73.5 -26t-34.5 -68l-25 -174h520l-30 -248h-525l-32 -231q-6 -42 10.5 -61t58.5 -19h510l-6 -279q-40 -5 -83.5 -8.5t-99 -5.5t-90.5 -3.5t-105 -2t-93.5 -0.5h-104h-90.5q-111 0 -184 45q-157 -68 -346 -68q-121 0 -209.5 15t-158 50.5 t-111 91.5t-63 140t-21 195t21.5 258q24 173 61.5 293.5t91.5 205t134 132.5t179.5 69t238.5 21q204 0 356 -58q68 35 156 35q510 0 692 -24zM635 266q144 0 229 29l2 22l113 805l2 11q-66 14 -180 14q-93 0 -148.5 -40t-92 -137.5t-62.5 -277.5q-15 -107 -19 -176.5 t1 -120.5t24.5 -78t50 -39t80.5 -12z" />
<glyph unicode="&#x153;" horiz-adv-x="1857" d="M1346 1047q146 0 244.5 -24t151 -72.5t69.5 -114.5t4 -156q-21 -137 -117.5 -193.5t-302.5 -72.5l-271 -21q3 -78 40 -103.5t126 -25.5q182 0 398 25l22 -232q-179 -82 -457 -82q-221 0 -350 99q-141 -99 -362 -99q-291 0 -409.5 127t-76.5 420q40 291 172 408t420 117 q202 0 330 -89q140 89 369 89zM1458 717q4 50 -20 65t-101 13q-91 -2 -128 -41.5t-62 -163.5l162 16q76 7 109.5 28t39.5 83zM553 236q92 0 129.5 56t62.5 230l7 45q15 132 -7.5 174.5t-105.5 42.5q-66 0 -101.5 -23.5t-57.5 -83.5t-40 -183q-22 -157 -0.5 -207.5 t113.5 -50.5z" />
<glyph unicode="&#x178;" horiz-adv-x="1288" d="M655 1563h-141q-68 0 -59 65l22 139q5 37 22 52.5t54 15.5h133q71 0 59 -63l-20 -146q-5 -34 -20.5 -48.5t-49.5 -14.5zM1028 1563h-139q-72 0 -60 65l21 141q6 35 23 50.5t51 15.5h137q68 0 59 -63l-22 -144q-3 -35 -19.5 -50t-50.5 -15zM811 444l-61 -444h-388l66 465 l-326 948h385l131 -485q22 -102 19 -195h29q14 98 65 195l270 485h412z" />
<glyph unicode="&#x2c6;" horiz-adv-x="950" d="M983 1219l-104 -123l-285 194h-16l-330 -194l-88 133l307 276h252z" />
<glyph unicode="&#x2dc;" horiz-adv-x="923" d="M385 1470q64 -1 178 -44.5t139 -47.5q53 -11 74.5 11.5t28.5 78.5l153 -14q6 -158 -46.5 -236.5t-143.5 -76.5q-68 2 -185.5 47t-142.5 49q-51 8 -71.5 -14.5t-28.5 -79.5l-154 14q-1 158 53 237t146 76z" />
<glyph unicode="&#x2000;" horiz-adv-x="979" />
<glyph unicode="&#x2001;" horiz-adv-x="1958" />
<glyph unicode="&#x2002;" horiz-adv-x="979" />
<glyph unicode="&#x2003;" horiz-adv-x="1958" />
<glyph unicode="&#x2004;" horiz-adv-x="652" />
<glyph unicode="&#x2005;" horiz-adv-x="489" />
<glyph unicode="&#x2006;" horiz-adv-x="326" />
<glyph unicode="&#x2007;" horiz-adv-x="326" />
<glyph unicode="&#x2008;" horiz-adv-x="244" />
<glyph unicode="&#x2009;" horiz-adv-x="391" />
<glyph unicode="&#x200a;" horiz-adv-x="108" />
<glyph unicode="&#x2010;" horiz-adv-x="811" d="M680 412h-602l33 225h602z" />
<glyph unicode="&#x2011;" horiz-adv-x="811" d="M680 412h-602l33 225h602z" />
<glyph unicode="&#x2012;" horiz-adv-x="811" d="M680 412h-602l33 225h602z" />
<glyph unicode="&#x2013;" horiz-adv-x="1116" d="M985 412h-907l33 225h907z" />
<glyph unicode="&#x2014;" horiz-adv-x="1718" d="M1585 412h-1507l33 225h1507z" />
<glyph unicode="&#x2018;" horiz-adv-x="456" d="M303 856h-63q-65 0 -90.5 28.5t-18.5 94.5l16 119q14 92 56.5 194t97.5 174l141 -53q-38 -89 -75 -248q53 1 72.5 -24t13.5 -80l-15 -90q-9 -66 -39.5 -90.5t-95.5 -24.5z" />
<glyph unicode="&#x2019;" horiz-adv-x="454" d="M305 1442h64q65 0 90 -29t16 -96l-16 -119q-12 -91 -54.5 -193.5t-97.5 -173.5l-141 54q42 102 76 248q-53 -3 -72.5 22.5t-13.5 79.5l12 92q10 65 41.5 90t95.5 25z" />
<glyph unicode="&#x201a;" horiz-adv-x="477" d="M162 293h65q65 0 90.5 -28.5t16.5 -94.5l-17 -119q-12 -91 -54 -193t-97 -175l-141 53q41 102 75 248q-53 -1 -73 24t-15 80l15 90q10 66 40 90.5t95 24.5z" />
<glyph unicode="&#x201c;" horiz-adv-x="845" d="M303 856h-63q-65 0 -90.5 28.5t-18.5 94.5l16 119q14 92 56.5 194t97.5 174l141 -53q-38 -89 -75 -248q53 1 72.5 -24t13.5 -80l-15 -90q-9 -66 -39.5 -90.5t-95.5 -24.5zM692 856h-63q-65 0 -90.5 28.5t-16.5 94.5l15 119q14 93 56 194.5t97 173.5l141 -53 q-38 -89 -75 -248q53 1 72.5 -24t13.5 -80l-13 -90q-10 -66 -41 -90.5t-96 -24.5z" />
<glyph unicode="&#x201d;" horiz-adv-x="843" d="M305 1442h64q65 0 90 -29t16 -96l-16 -119q-12 -91 -54.5 -193.5t-97.5 -173.5l-141 54q42 102 76 248q-53 -3 -72.5 22.5t-13.5 79.5l12 92q10 65 41.5 90t95.5 25zM694 1442h64q65 0 90 -29t16 -96l-14 -119q-14 -93 -56.5 -195t-97.5 -172l-141 54q39 89 76 248 q-53 -3 -72.5 22.5t-13.5 79.5l12 92q10 65 41.5 90t95.5 25z" />
<glyph unicode="&#x201e;" horiz-adv-x="866" d="M162 293h65q65 0 90.5 -28.5t16.5 -94.5l-17 -121q-12 -90 -54.5 -192.5t-96.5 -173.5l-141 53q41 102 75 248q-53 -1 -73 23.5t-15 78.5l15 92q10 65 40.5 90t94.5 25zM553 293h63q65 0 90.5 -28.5t16.5 -94.5l-16 -121q-12 -90 -54.5 -192.5t-97.5 -173.5l-141 53 q41 102 75 248q-53 -1 -72.5 23.5t-13.5 78.5l13 92q10 65 41.5 90t95.5 25z" />
<glyph unicode="&#x2022;" horiz-adv-x="768" d="M389 803h43q126 0 173 -55t30 -185l-6 -31q-20 -141 -72 -190t-182 -49h-47q-131 0 -178.5 56.5t-28.5 195.5l6 33q19 132 72 178.5t190 46.5z" />
<glyph unicode="&#x2026;" horiz-adv-x="1855" d="M145 348h78q66 0 99 -35.5t24 -101.5l-12 -90q-8 -62 -41 -91.5t-100 -29.5h-80q-141 0 -123 135l12 92q9 63 43.5 92t99.5 29zM819 348h78q66 0 99 -35.5t24 -101.5l-12 -90q-8 -62 -42 -91.5t-100 -29.5h-80q-140 0 -122 135l12 92q14 121 143 121zM1491 348h80 q66 0 99 -35.5t24 -101.5l-13 -90q-9 -62 -42.5 -91.5t-100.5 -29.5h-78q-141 0 -123 135l11 92q17 121 143 121z" />
<glyph unicode="&#x202f;" horiz-adv-x="391" />
<glyph unicode="&#x2039;" horiz-adv-x="643" d="M588 831l-211 -317l149 -330l-192 -127l-289 418l6 80l344 403z" />
<glyph unicode="&#x203a;" horiz-adv-x="641" d="M571 543l-6 -82l-346 -404l-190 127l211 318l-150 329l193 127z" />
<glyph unicode="&#x205f;" horiz-adv-x="489" />
<glyph unicode="&#x20ac;" horiz-adv-x="1308" d="M936 1438q203 0 371 -54l-47 -266q-46 6 -156.5 8t-196.5 -4q-95 -8 -150 -46t-87 -120h426l-49 -208h-957l31 208h139q70 250 228 366t448 116zM758 285q82 -8 192.5 -1t206.5 23l17 -272q-169 -60 -402 -60q-282 0 -421.5 121t-151.5 371h-150l29 211h934l-47 -211 h-369q8 -85 46.5 -129t115.5 -53z" />
<glyph unicode="&#x2122;" horiz-adv-x="2019" d="M674 1231l-84 -584h-254l84 584h-232l27 194h715l-27 -194h-229zM1675 1425h234q43 0 66.5 -26.5t19.5 -69.5l-72 -682h-231l57 588h-16l-136 -391q-10 -38 -33 -54t-63 -16h-139q-40 0 -65.5 23t-26.5 61l-29 377h-20l-105 -588h-233l125 696q8 44 27 63t61 19h229 q38 0 62 -24t26 -62l25 -284q3 -57 -4 -129h16q17 82 29 127l98 301q19 71 98 71z" />
<glyph unicode="&#x25fc;" horiz-adv-x="1013" d="M0 1014h1014v-1014h-1014v1014z" />
<glyph unicode="&#xfb01;" horiz-adv-x="1423" d="M1163 1491h158q56 0 82.5 -31t19.5 -86l-14 -106q-8 -56 -33 -79.5t-80 -23.5h-159q-56 0 -83 31t-20 86l17 107q6 56 31.5 79t80.5 23zM1370 1018l-141 -1018h-373l109 784h-371l-127 -862q-45 -317 -373 -317q-83 0 -299 26l58 232h114q70 0 101 26.5t41 98.5l116 796 h-170l31 224l174 10l21 137q23 158 110 241t264 83q187 0 310 -27l-50 -229h-133q-69 0 -100.5 -29.5t-42.5 -103.5l-10 -72h741z" />
<glyph unicode="&#xfb02;" horiz-adv-x="1511" d="M1432 258l18 -242q-38 -21 -119 -32t-139 -11q-151 0 -228.5 76t-60.5 207l139 971h-264q-65 0 -99 -32t-44 -105l-10 -72h241l-32 -234h-242l-119 -862q-45 -317 -373 -317q-86 0 -299 26l56 232h114q70 0 101 26.5t41 98.5l112 796h-172l27 224l178 10l18 137 q10 77 35.5 134.5t69 101.5t111.5 66.5t159 21.5q551 0 783 -45l-146 -1096q-6 -46 8.5 -63t63.5 -17h72z" />
<glyph unicode="&#xfb03;" horiz-adv-x="2179" d="M1919 1491h158q56 0 82.5 -31t19.5 -86l-14 -106q-8 -56 -33 -79.5t-80 -23.5h-160q-56 0 -82.5 31t-19.5 86l16 107q6 56 32 79t81 23zM2128 1018l-141 -1018h-373l108 784h-364l-125 -833q-49 -318 -375 -318q-98 0 -301 27l59 231h113q73 0 105.5 26t42.5 97l112 770 h-393l-129 -862q-45 -317 -373 -317q-82 0 -301 26l57 232h115q72 0 104.5 26.5t41.5 98.5l116 796h-172l29 224l176 10l19 123q23 153 111.5 235t262.5 82q202 0 326 -26l-57 -230h-142q-70 0 -101 -27t-40 -98l-8 -59h393l20 143q23 153 112 235.5t263 82.5 q68 0 162.5 -7.5t151.5 -19.5l-60 -229h-127q-69 0 -100 -26.5t-41 -98.5l-12 -80h735z" />
<glyph unicode="&#xfb04;" horiz-adv-x="2287" d="M2195 258l17 -242q-38 -21 -118 -32t-138 -11q-152 0 -230 76t-59 207l137 971h-262q-66 0 -99.5 -32t-43.5 -105l-10 -72h241l-33 -234h-241l-121 -833q-45 -318 -373 -318q-100 0 -299 27l58 231h114q70 0 101 26t41 97l108 770h-389l-129 -862q-45 -317 -373 -317 q-82 0 -301 26l57 232h115q72 0 104.5 26.5t41.5 98.5l116 796h-172l29 224l176 10l19 123q23 153 111.5 235t262.5 82q202 0 326 -26l-57 -230h-142q-70 0 -101 -27t-40 -98l-8 -59h387l20 137q10 77 35.5 134.5t69 101.5t111.5 66.5t159 21.5q550 0 782 -45l-145 -1096 q-6 -46 9.5 -63t62.5 -17h73z" />
</font>
</defs>
</svg>
